<svg width="27" height="28" viewBox="0 0 27 28" fill="none" xmlns="http://www.w3.org/2000/svg">
<path fill-rule="evenodd" clip-rule="evenodd" d="M17.9166 2.05076L24.9445 9.1296C23.6777 7.85358 21.9282 7.06367 19.9677 7.06367H6.99773L0 0.0455933H12.9398C14.8702 0.0455933 16.6498 0.774744 17.9166 2.05076Z" fill="#F0AA00"/>
<path fill-rule="evenodd" clip-rule="evenodd" d="M0 0.0455933L7.02789 7.06367V19.6415L0 12.5627V0.0455933Z" fill="#E64B00"/>
<path d="M7.48047 20.1277H19.9678V21.2214C19.9678 24.3811 17.5548 26.9331 14.4782 27.1458L7.48047 20.1277Z" fill="#F0AA00"/>
<path fill-rule="evenodd" clip-rule="evenodd" d="M19.9678 7.06366C23.8587 7.06366 26.9956 10.2233 26.9956 14.1425C26.9956 16.0869 26.2114 17.8794 24.9446 19.1554L19.0327 25.1101C17.9167 26.2343 16.4387 26.9634 14.7798 27.1457C17.7056 26.7811 19.9678 24.2899 19.9678 21.2517V7.06366Z" fill="#E64B00"/>
</svg>
