<svg width="40" height="40" viewBox="0 0 40 40" fill="none" xmlns="http://www.w3.org/2000/svg">
<path d="M6.32007 24.5825V16.7921H12.2853V18.6061H8.45687V19.6413H10.7605V21.4329H8.45687V22.7685H12.3633V24.5825H6.32007Z" fill="white"/>
<path d="M19.3748 24.5825L16.3032 20.1865V24.5825H14.2996V16.7921H16.2028L19.1296 20.9321V16.7921H21.1328V24.5825H19.3748Z" fill="white"/>
<path d="M26.2529 24.7049C24.9953 24.7049 23.7821 24.2933 22.9697 23.7589L24.0157 22.0673C24.5833 22.4569 25.5737 22.8461 26.2973 22.8461C27.0653 22.8461 27.3101 22.7125 27.3101 22.3453C27.3101 22.0561 27.0317 21.8777 25.9857 21.6329C24.1049 21.1989 23.2033 20.6869 23.2033 19.1289C23.2033 17.6597 24.3941 16.6693 26.2749 16.6693C27.5993 16.6693 28.5565 16.9921 29.3801 17.5709L28.3341 19.2625C27.6441 18.7949 26.9541 18.5281 26.1641 18.5281C25.5185 18.5281 25.3629 18.7285 25.3629 19.0065C25.3629 19.2957 25.6413 19.4293 26.6429 19.6633C28.6017 20.1309 29.4697 20.7317 29.4697 22.1897C29.4689 23.9705 28.1225 24.7049 26.2529 24.7049Z" fill="white"/>
<path d="M31.4387 24.5825V16.7921H33.6423V24.5825H31.4387Z" fill="white"/>
<path d="M9.41127 33.1765C7.39567 33.1765 6.32007 31.6841 6.32007 29.6785C6.32007 27.4981 7.59927 26.1805 9.42087 26.1805C11.0877 26.1805 11.7465 26.8977 12.2117 28.1765L10.5061 28.8453C10.2637 28.2153 10.0313 27.8181 9.41127 27.8181C8.62647 27.8181 8.28727 28.6029 8.28727 29.6785C8.28727 30.7153 8.61687 31.5389 9.43047 31.5389C10.0217 31.5389 10.2737 31.2193 10.6417 30.5797L12.2309 31.4229C11.7757 32.3141 11.0197 33.1765 9.41127 33.1765Z" fill="white"/>
<path d="M17.66 33.0698L17.2916 31.8778H15.2568L14.8884 33.0698H12.8728L15.334 26.287H17.2332L19.6944 33.0698H17.66ZM16.7104 29.9402C16.468 29.0682 16.3616 28.6998 16.2744 28.2446C16.1872 28.7002 16.0808 29.0778 15.8384 29.9402L15.7124 30.3858H16.8364L16.7104 29.9402Z" fill="white"/>
<path d="M20.812 33.0698V26.287H26.006V27.8666H22.6728V28.7678H24.6788V30.3278H22.6728V31.4906H26.074V33.0702H20.812V33.0698Z" fill="white"/>
<path d="M32.1112 33.0698L30.4928 30.8314C30.1924 30.4146 29.6112 29.5426 29.4368 29.2422C29.4852 29.5426 29.4948 30.4438 29.4948 30.9962V33.0698H27.6924V26.287H29.3496L30.842 28.293C31.152 28.7098 31.7528 29.611 31.8984 29.8918C31.85 29.5914 31.8404 28.6902 31.8404 28.1378V26.287H33.6428V33.0698H32.1112Z" fill="white"/>
<path d="M30.812 11.1814H28.5728V12.3242H30.812V11.1814Z" fill="#CE5858"/>
<path d="M8.55927 11.1814H6.32007V12.3242H8.55927V11.1814Z" fill="#CE5858"/>
<path d="M14.1357 12.6714H11.8965V13.8142H14.1357V12.6714Z" fill="#CE5858"/>
<path d="M28.0225 12.6733H25.7869V13.8141H28.0225V12.6733Z" fill="#CE5858"/>
<path d="M16.9128 9.67615H14.6772V10.8169H16.9128V9.67615Z" fill="#C0AA3B"/>
<path d="M22.514 14.1718H20.1812V15.3126H22.514V14.1718Z" fill="#DC9448"/>
<path d="M19.7307 9.68054H17.3979V10.8213H19.7307V9.68054Z" fill="#CE5858"/>
<path d="M25.2487 8.17975H23.0095V9.32255H25.2487V8.17975Z" fill="#CE5858"/>
<path d="M33.6423 14.1833H31.3059V15.3261H33.6423V14.1833Z" fill="#CE5858"/>
<path d="M11.3408 12.6826H9.10156V13.8254H11.3408V12.6826Z" fill="#CE5858"/>
<path d="M25.2487 12.6826H23.0095V13.8254H25.2487V12.6826Z" fill="#DC9448"/>
<path d="M30.812 8.17975H28.5728V9.32255H30.812V8.17975Z" fill="#DC9448"/>
<path d="M33.6423 12.6826H31.3059V13.8254H33.6423V12.6826Z" fill="#DC9448"/>
<path d="M14.1225 14.1833H11.8833V15.3261H14.1225V14.1833Z" fill="#DC9448"/>
<path d="M19.7343 11.1814H17.3979V12.3242H19.7343V11.1814Z" fill="#4ABBBF"/>
<path d="M11.3584 11.1746H9.1228V12.3154H11.3584V11.1746Z" fill="#DC9448"/>
<path d="M28.0305 9.68054H25.7913V10.8233H28.0305V9.68054Z" fill="#DC9448"/>
<path d="M14.1225 9.68054H11.8833V10.8233H14.1225V9.68054Z" fill="#DC9448"/>
<path d="M8.55927 14.1833H6.32007V15.3261H8.55927V14.1833Z" fill="#CE5858"/>
<path d="M30.7996 9.67615H28.564V10.8169H30.7996V9.67615Z" fill="#4ABBBF"/>
<path d="M30.7996 12.6733H28.564V13.8141H30.7996V12.6733Z" fill="#C0AA3B"/>
<path d="M14.1189 11.1814H11.8833V12.3222H14.1189V11.1814Z" fill="#4ABBBF"/>
<path d="M22.5159 11.1746H20.1831V12.3154H22.5159V11.1746Z" fill="#CE5858"/>
<path d="M25.2487 9.68054H23.0095V10.8233H25.2487V9.68054Z" fill="#4ABBBF"/>
<path d="M33.6423 9.68054H31.3059V10.8233H33.6423V9.68054Z" fill="#CE5858"/>
<path d="M16.904 12.6826H14.6648V13.8254H16.904V12.6826Z" fill="#DC9448"/>
<path d="M22.5161 9.68054H20.1797V10.8233H22.5161V9.68054Z" fill="#C0AA3B"/>
<path d="M25.2487 11.1814H23.0095V12.3242H25.2487V11.1814Z" fill="#C0AA3B"/>
<path d="M33.6423 11.1814H31.3059V12.3242H33.6423V11.1814Z" fill="#C0AA3B"/>
<path d="M16.904 11.1814H14.6648V12.3242H16.904V11.1814Z" fill="#CE5858"/>
<path d="M28.0288 14.1718H25.7932V15.3126H28.0288V14.1718Z" fill="#C0AA3B"/>
<path d="M8.58081 12.6733H6.34521V13.8141H8.58081V12.6733Z" fill="#C0AA3B"/>
<path d="M28.0305 8.17975H25.7913V9.32255H28.0305V8.17975Z" fill="#C0AA3B"/>
<path d="M16.904 14.1833H14.6648V15.3261H16.904V14.1833Z" fill="#C0AA3B"/>
<path d="M19.7387 12.6714H17.4023V13.8142H19.7387V12.6714Z" fill="#C0AA3B"/>
<path d="M25.2487 14.1833H23.0095V15.3261H25.2487V14.1833Z" fill="#4ABBBF"/>
<path d="M28.0305 11.1814H25.7913V12.3242H28.0305V11.1814Z" fill="#4ABBBF"/>
<path d="M30.812 14.1833H28.5728V15.3261H30.812V14.1833Z" fill="#4ABBBF"/>
<path d="M11.3408 14.1833H9.10156V15.3261H11.3408V14.1833Z" fill="#4ABBBF"/>
<path d="M22.5161 12.6826H20.1797V13.8254H22.5161V12.6826Z" fill="#4ABBBF"/>
<path d="M19.7343 14.1833H17.3979V15.3261H19.7343V14.1833Z" fill="#CE5858"/>
<path d="M22.5161 8.17734H20.1833V9.31814H22.5161V8.17734Z" fill="#DC9448"/>
<path d="M17.3979 9.32252H19.7343V8.19772C18.9699 8.25332 18.1895 8.32172 17.3979 8.40412V9.32252Z" fill="#C0AA3B"/>
<path d="M9.10156 10.8233H11.3408V9.68054H9.66436C9.47676 9.72454 9.28916 9.76934 9.10196 9.81534V10.8233H9.10156Z" fill="#C0AA3B"/>
<path d="M11.8833 9.32252H14.1225V8.82452C13.3801 8.93852 12.6325 9.06652 11.8833 9.20972V9.32252Z" fill="#CE5858"/>
<path d="M14.6772 9.31815H16.9128V8.45615C16.1756 8.53815 15.4296 8.63255 14.6772 8.74135V9.31815Z" fill="#4ABBBF"/>
<path d="M31.3062 8.17975V9.32255H33.6426V8.36135C33.3454 8.32855 32.621 8.25415 31.5606 8.17975H31.3062Z" fill="#4ABBBF"/>
<path d="M6.32007 10.8234H8.55927V9.95175C7.80887 10.145 7.06167 10.3554 6.32007 10.5854V10.8234Z" fill="#4ABBBF"/>
<path d="M6.32007 10.0157V10.3093V10.5857C7.06167 10.3557 7.80887 10.1449 8.55927 9.95214C8.74007 9.90574 8.92087 9.86014 9.10167 9.81574C9.28927 9.76974 9.47647 9.72494 9.66407 9.68094C10.4037 9.50774 11.1441 9.35134 11.8833 9.20974C12.6325 9.06614 13.3801 8.93814 14.1225 8.82454C14.3077 8.79614 14.4929 8.76854 14.6773 8.74174C15.4297 8.63294 16.1757 8.53814 16.9129 8.45654C17.0749 8.43854 17.2365 8.42094 17.3977 8.40454C18.1897 8.32214 18.9697 8.25374 19.7341 8.19814C24.7433 7.83374 29.0749 8.00614 31.5601 8.18014C32.6205 8.25454 33.3449 8.32894 33.6421 8.36174V8.18014C33.6421 7.75894 33.6421 7.63534 33.6421 7.10854C32.3465 6.96814 18.2445 5.60174 6.32007 10.0157Z" fill="white"/>
</svg>
