<svg width="26" height="23" viewBox="0 0 26 23" fill="none" xmlns="http://www.w3.org/2000/svg">
<path d="M9.97223 19.4086C12.2214 17.594 13.6694 16.9904 16.7965 17.1162C12.7461 18.2245 11.1982 19.6573 9.13815 23L6.78757 18.186C4.82187 18.3284 3.82023 18.1508 2.31387 17.1162C0.0847662 15.5778 -0.112539 14.1362 0.0391112 11.8439C0.190762 9.5515 2.45186 7.68532 5.11941 6.80066C5.07805 4.99326 5.43192 4.00767 6.78757 2.29233C8.30429 0.536857 9.59893 0.205185 12.1712 0C14.4899 0.259517 15.4114 0.874653 16.7965 2.29233C18.8167 1.48468 20.0961 1.681 22.1043 2.44515C24.1125 3.2093 26.2747 6.34219 25.9714 9.55147C25.6681 12.7607 23.5475 14.346 20.2087 15.3588C17.2454 13.9509 15.2527 14.0774 11.2613 15.5116C12.2403 14.3418 12.9491 13.8354 14.5976 13.2957C16.6633 12.8118 18.0127 12.6703 20.8153 12.6844C23.4261 11.7582 23.885 9.39867 23.6208 7.64117C23.3566 5.88367 21.8768 4.43189 19.6779 4.12621C17.4789 3.82054 15.8489 5.33679 14.8251 7.8704C14.3501 6.14247 14.3282 5.18837 14.8251 3.51492C14.0956 2.81872 13.6431 2.55018 12.7019 2.44515C9.8442 2.40888 8.3799 3.36213 7.54582 5.19598C6.71174 7.02983 7.77893 9.51173 9.97223 10.6976C7.81261 11.157 6.79399 10.8696 5.42271 9.09299C4.28771 9.33691 3.60291 9.55142 2.84465 10.6976C2.0864 11.8439 2.01058 12.99 2.9963 14.5946C3.98203 16.1993 5.72078 16.193 7.92495 15.3588L9.97223 19.4086Z" fill="white"/>
</svg>
