<svg width="7" height="7" viewBox="0 0 7 7" fill="none" xmlns="http://www.w3.org/2000/svg">
<path d="M5.88889 1.88889L0.958333 6.83333C0.847222 6.94444 0.715185 7 0.562222 7C0.40963 7 0.277778 6.94444 0.166666 6.83333C0.0555554 6.72222 0 6.59018 0 6.43722C0 6.28463 0.0555554 6.15278 0.166666 6.04167L5.11111 1.11111H0.888889C0.731481 1.11111 0.599444 1.05796 0.492778 0.951667C0.386481 0.845 0.333333 0.712963 0.333333 0.555556C0.333333 0.398148 0.386481 0.266111 0.492778 0.159445C0.599444 0.0531482 0.731481 0 0.888889 0H6.44444C6.60185 0 6.7337 0.0531482 6.84 0.159445C6.94667 0.266111 7 0.398148 7 0.555556V6.11111C7 6.26852 6.94667 6.40037 6.84 6.50667C6.7337 6.61333 6.60185 6.66667 6.44444 6.66667C6.28704 6.66667 6.15519 6.61333 6.04889 6.50667C5.94222 6.40037 5.88889 6.26852 5.88889 6.11111V1.88889Z" fill="#8B949E" fill-opacity="0.5"/>
</svg>
