<svg width="36" height="36" viewBox="0 0 36 36" fill="none" xmlns="http://www.w3.org/2000/svg">
<path d="M19.26 23.94L23.94 19.26C24.27 18.93 24.435 18.51 24.435 18C24.435 17.49 24.27 17.07 23.94 16.74L19.215 12.015C18.885 11.685 18.4728 11.5272 17.9784 11.5416C17.4828 11.5572 17.07 11.73 16.74 12.06C16.41 12.39 16.245 12.81 16.245 13.32C16.245 13.83 16.41 14.25 16.74 14.58L18.36 16.2H12.555C12.045 16.2 11.625 16.3722 11.295 16.7166C10.965 17.0622 10.8 17.49 10.8 18C10.8 18.51 10.9728 18.9372 11.3184 19.2816C11.6628 19.6272 12.09 19.8 12.6 19.8H18.36L16.695 21.465C16.365 21.795 16.2072 22.2078 16.2216 22.7034C16.2372 23.1978 16.41 23.61 16.74 23.94C17.07 24.27 17.49 24.435 18 24.435C18.51 24.435 18.93 24.27 19.26 23.94ZM18 36C15.51 36 13.17 35.5272 10.98 34.5816C8.79 33.6372 6.885 32.355 5.265 30.735C3.645 29.115 2.3628 27.21 1.4184 25.02C0.4728 22.83 0 20.49 0 18C0 15.51 0.4728 13.17 1.4184 10.98C2.3628 8.79 3.645 6.885 5.265 5.265C6.885 3.645 8.79 2.3622 10.98 1.4166C13.17 0.4722 15.51 0 18 0C20.49 0 22.83 0.4722 25.02 1.4166C27.21 2.3622 29.115 3.645 30.735 5.265C32.355 6.885 33.6372 8.79 34.5816 10.98C35.5272 13.17 36 15.51 36 18C36 20.49 35.5272 22.83 34.5816 25.02C33.6372 27.21 32.355 29.115 30.735 30.735C29.115 32.355 27.21 33.6372 25.02 34.5816C22.83 35.5272 20.49 36 18 36Z" fill="#A8D0DB"/>
</svg>
