<svg width="74" height="23" viewBox="0 0 74 23" fill="none" xmlns="http://www.w3.org/2000/svg">
<path d="M5.13672 11.2129V12.6973H0.371094V11.2129H5.13672ZM12.6641 11.2129V12.6973H7.89844V11.2129H12.6641ZM20.1914 11.2129V12.6973H15.4258V11.2129H20.1914ZM27.7188 11.2129V12.6973H22.9531V11.2129H27.7188ZM35.2461 11.2129V12.6973H30.4805V11.2129H35.2461ZM42.7734 11.2129V12.6973H38.0078V11.2129H42.7734ZM50.3008 11.2129V12.6973H45.5352V11.2129H50.3008ZM57.8281 11.2129V12.6973H53.0625V11.2129H57.8281ZM65.3555 11.2129V12.6973H60.5898V11.2129H65.3555Z" fill="#4B525A" fill-opacity="0.5"/>
<path d="M63 9L66 12L63 15" stroke="#4B525A" stroke-opacity="0.5" stroke-width="1.5"/>
</svg>
