<svg width="16" height="16" viewBox="0 0 16 16" fill="none" xmlns="http://www.w3.org/2000/svg">
<g clip-path="url(#clip0_29_30)">
<path d="M15.3348 14.3893H15.4861L15.1961 13.9507C15.3734 13.9507 15.4674 13.838 15.4688 13.7C15.4688 13.6947 15.4688 13.6887 15.4681 13.6833C15.4681 13.4953 15.3548 13.4053 15.1221 13.4053H14.7461V14.3893H14.8874V13.9607H15.0614L15.3348 14.3893ZM15.0514 13.8493H14.8874V13.5167H15.0954C15.2028 13.5167 15.3254 13.534 15.3254 13.6747C15.3254 13.836 15.2021 13.8493 15.0514 13.8493Z" fill="#8B949E" fill-opacity="0.5"/>
<path d="M11.5273 12.7153H9.52267V9.57599C9.52267 8.82732 9.50933 7.86399 8.48 7.86399C7.436 7.86399 7.276 8.67932 7.276 9.52199V12.7153H5.272V6.25932H7.19667V7.14132H7.22333C7.616 6.47065 8.34533 6.06999 9.122 6.09866C11.154 6.09866 11.528 7.43532 11.528 9.17332L11.5273 12.7153ZM3.01 5.37665C2.36733 5.37665 1.84667 4.85599 1.84667 4.21332C1.84667 3.57066 2.36733 3.04999 3.01 3.04999C3.65267 3.04999 4.17333 3.57066 4.17333 4.21332C4.17333 4.85599 3.65267 5.37665 3.01 5.37665ZM4.012 12.7153H2.00533V6.25932H4.012V12.7153ZM12.5267 1.18865H0.998C0.453333 1.18265 0.00666667 1.61932 0 2.16399V13.74C0.00666667 14.2853 0.453333 14.722 0.998 14.716H12.5267C13.0727 14.7227 13.5213 14.286 13.5287 13.74V2.16332C13.5207 1.61732 13.072 1.18065 12.5267 1.18799" fill="#8B949E" fill-opacity="0.5"/>
<path d="M15.0687 12.9673C14.5593 12.972 14.15 13.3893 14.1553 13.8986C14.16 14.408 14.5773 14.8173 15.0867 14.812C15.596 14.8073 16.0053 14.39 16 13.8806C15.9953 13.378 15.5887 12.972 15.0867 12.9673H15.0687ZM15.09 14.706C14.6433 14.7133 14.254 14.358 14.2467 13.9113C14.2393 13.4646 14.5953 13.0966 15.042 13.0893C15.4887 13.082 15.8567 13.438 15.864 13.8846C15.864 13.8893 15.864 13.8933 15.864 13.898C15.8733 14.3346 15.5267 14.6966 15.09 14.706H15.0693H15.09Z" fill="#8B949E" fill-opacity="0.5"/>
</g>
<defs>
<clipPath id="clip0_29_30">
<rect width="16" height="16" fill="white"/>
</clipPath>
</defs>
</svg>
