<svg width="16" height="16" viewBox="0 0 16 16" fill="none" xmlns="http://www.w3.org/2000/svg">
<g clip-path="url(#clip0_29_38)">
<path fill-rule="evenodd" clip-rule="evenodd" d="M8 0.197327C3.582 0.197327 0 3.77866 0 8.19733C0 11.732 2.292 14.7307 5.47067 15.7887C5.87067 15.8627 6.01733 15.6153 6.01733 15.404C6.01733 15.2133 6.01 14.5833 6.00667 13.9147C3.78133 14.3987 3.31133 12.9707 3.31133 12.9707C2.94733 12.046 2.42333 11.8 2.42333 11.8C1.69733 11.3033 2.478 11.314 2.478 11.314C3.28133 11.3707 3.704 12.1387 3.704 12.1387C4.41733 13.3613 5.57533 13.008 6.032 12.8033C6.104 12.286 6.31133 11.9333 6.54 11.7333C4.76333 11.5313 2.89533 10.8453 2.89533 7.77999C2.89533 6.90666 3.208 6.19266 3.72 5.63266C3.63667 5.43066 3.36267 4.61733 3.79733 3.51533C3.79733 3.51533 4.46933 3.30066 5.998 4.33533C6.636 4.15799 7.32 4.06933 8 4.06599C8.68 4.06933 9.36467 4.15799 10.004 4.33533C11.5307 3.29999 12.202 3.51533 12.202 3.51533C12.6373 4.61733 12.3633 5.43066 12.2807 5.63266C12.7933 6.19266 13.104 6.90666 13.104 7.77999C13.104 10.8527 11.2327 11.5293 9.45133 11.7273C9.738 11.9753 9.994 12.4627 9.994 13.2087C9.994 14.2793 9.98467 15.1407 9.98467 15.404C9.98467 15.6167 10.1287 15.8667 10.534 15.788C13.7113 14.7287 16.0007 11.7313 16.0007 8.19799C16 3.77933 12.418 0.197327 8 0.197327Z" fill="#8B949E" fill-opacity="0.5"/>
<path d="M3.03002 11.684C3.01269 11.724 2.95002 11.736 2.89269 11.7087C2.83469 11.6827 2.80202 11.628 2.82069 11.5887C2.83802 11.548 2.90069 11.5367 2.95869 11.564C3.01669 11.5893 3.05002 11.644 3.03002 11.684Z" fill="#8B949E" fill-opacity="0.5"/>
<path d="M3.3539 12.0453C3.3159 12.0807 3.24123 12.064 3.19056 12.0087C3.1379 11.9527 3.12856 11.878 3.16723 11.8427C3.20656 11.8073 3.27856 11.824 3.33123 11.88C3.3839 11.9353 3.3939 12.0093 3.3539 12.0453Z" fill="#8B949E" fill-opacity="0.5"/>
<path d="M3.66936 12.506C3.62003 12.54 3.54003 12.508 3.49069 12.4373C3.44136 12.366 3.44136 12.2807 3.49203 12.2467C3.54136 12.2127 3.62069 12.2433 3.67069 12.314C3.71936 12.386 3.71936 12.4713 3.66936 12.506Z" fill="#8B949E" fill-opacity="0.5"/>
<path d="M4.1013 12.9513C4.0573 13 3.96397 12.9867 3.89597 12.9207C3.82597 12.856 3.80664 12.7647 3.85064 12.716C3.8953 12.6673 3.9893 12.6813 4.05797 12.7467C4.1273 12.8113 4.14797 12.9033 4.1013 12.9513Z" fill="#8B949E" fill-opacity="0.5"/>
<path d="M4.69805 13.2093C4.67872 13.272 4.58872 13.3007 4.49805 13.274C4.40738 13.2467 4.34805 13.1733 4.36672 13.11C4.38538 13.0467 4.47605 13.0173 4.56738 13.046C4.65738 13.0727 4.71672 13.146 4.69805 13.2093Z" fill="#8B949E" fill-opacity="0.5"/>
<path d="M5.35279 13.2573C5.35479 13.3233 5.27812 13.378 5.18279 13.3793C5.08746 13.3813 5.00946 13.328 5.00879 13.2633C5.00879 13.1966 5.08412 13.1426 5.17946 13.1406C5.27479 13.1386 5.35279 13.192 5.35279 13.2573Z" fill="#8B949E" fill-opacity="0.5"/>
<path d="M5.9621 13.154C5.97343 13.218 5.90743 13.2847 5.81276 13.302C5.7201 13.3193 5.63409 13.2793 5.62209 13.2153C5.61076 13.1493 5.6781 13.0833 5.77076 13.066C5.86476 13.0493 5.9501 13.088 5.9621 13.154Z" fill="#8B949E" fill-opacity="0.5"/>
</g>
<defs>
<clipPath id="clip0_29_38">
<rect width="16" height="16" fill="white"/>
</clipPath>
</defs>
</svg>
