<svg width="31" height="29" viewBox="0 0 31 29" fill="none" xmlns="http://www.w3.org/2000/svg">
<path d="M7.18363 22.6629C8.79806 22.6629 9.91551 21.8557 10.536 20.2413L12.8582 21.1178C12.3582 22.3467 11.6233 23.2623 10.6535 23.8647C9.68961 24.4611 8.533 24.7593 7.18363 24.7593C5.8222 24.7593 4.66258 24.5002 3.70476 23.9822C2.74695 23.4581 2.01503 22.7021 1.50901 21.7141C1.00902 20.7262 0.759025 19.5395 0.759025 18.1539C0.759025 16.7564 0.999985 15.5757 1.48191 14.6118C1.96383 13.648 2.67466 12.9161 3.6144 12.4161C4.55415 11.9101 5.70473 11.6571 7.06616 11.6571C8.56011 11.6571 9.77696 11.9583 10.7167 12.5607C11.6565 13.157 12.3161 14.0365 12.6956 15.1992L10.3462 15.8407C10.1474 15.2022 9.75588 14.6962 9.17155 14.3227C8.59324 13.9432 7.90952 13.7534 7.12038 13.7534C5.91557 13.7534 4.99993 14.1269 4.37343 14.8739C3.75296 15.6209 3.44272 16.7142 3.44272 18.1539C3.44272 19.1298 3.58428 19.9521 3.86741 20.6208C4.15656 21.2894 4.57824 21.7985 5.13245 22.1479C5.69269 22.4912 6.37641 22.6629 7.18363 22.6629Z" fill="#4EB5ED"/>
<path d="M28.2727 10.5393C28.2727 11.9007 28.0077 13.0633 27.4775 14.0272C26.9535 14.991 26.2245 15.7289 25.2908 16.241C24.3631 16.747 23.2909 17 22.074 17H16.9235V4.26826H21.5318C23.6764 4.26826 25.336 4.81042 26.5107 5.89474C27.6854 6.97304 28.2727 8.52121 28.2727 10.5393ZM25.589 10.5393C25.589 9.1718 25.2336 8.12965 24.5228 7.41279C23.8119 6.68991 22.7969 6.32847 21.4776 6.32847H19.5891V14.9398H21.8481C22.6132 14.9398 23.2728 14.7621 23.827 14.4067C24.3872 14.0452 24.821 13.5362 25.1282 12.8796C25.4354 12.223 25.589 11.4429 25.589 10.5393Z" fill="#4EB5ED"/>
<path d="M10.2222 8.10731C10.2222 7.91264 10.38 7.75482 10.5747 7.75482H12.8658V15.6859C12.8658 15.8805 12.708 16.0383 12.5134 16.0383H10.2222V8.10731Z" fill="#4EB5ED"/>
<path d="M16.9194 10.7509C16.9194 10.3616 17.2351 10.046 17.6244 10.046H19.5631V17.977C19.5631 18.1717 19.4053 18.3295 19.2106 18.3295H16.9194V10.7509Z" fill="#4EB5ED"/>
<rect x="10.6206" y="9.32825" width="2.74077" height="10.9959" transform="rotate(-35 10.6206 9.32825)" fill="#4EB5ED"/>
</svg>
