<svg width="32" height="26" viewBox="0 0 32 26" fill="none" xmlns="http://www.w3.org/2000/svg">
<path d="M30.0885 18.9435C24.5616 18.7027 21.5785 18.813 16.4453 19.3958C16.2406 19.852 16.3339 20.0529 17.3498 20.1873L28.5432 19.3099C30.2115 19.3935 30.8914 19.3682 31.2945 19.0943C30.515 19.0776 30.1539 19.0578 30.0885 18.9435Z" fill="#CE18CC"/>
<path d="M28.3814 10.1146C19.7365 14.13 15.6826 16.8671 15.1672 18.9781C15.156 19.024 15.1684 19.0722 15.2031 19.1042C15.4566 19.3379 15.7465 19.2002 16.3569 18.7111C18.0375 17.533 19.582 16.7169 21.3582 15.9151C21.3657 15.9118 21.3731 15.9076 21.38 15.9031C23.1423 14.7308 23.4751 14.3289 24.0906 13.5295C24.1004 13.5168 24.1123 13.5055 24.1256 13.4965L28.6363 10.4391C28.7275 10.3773 28.7237 10.2417 28.6292 10.185L28.5234 10.1216C28.4806 10.0958 28.4267 10.0935 28.3814 10.1146Z" fill="#1B8755"/>
<path d="M15.8668 3.10809C12.9989 10.7311 13.269 12.4206 13.7939 18.7488C15.5094 19.296 15.8055 16.7251 15.8668 10.1181C17.0514 4.90453 17.014 2.83752 16.5452 0.0176392C16.1464 0.820541 16.019 1.43476 16.1306 3.10809H15.8668Z" fill="#ED0624"/>
<path d="M19.4745 22.4318C12.4874 21.6806 8.2687 22.358 3.48316 24.7613C2.99814 25.0049 2.34962 25.548 2.87845 25.6701C3.05778 25.7115 3.40018 25.6922 3.58088 25.6572C12.2611 23.9763 17.0996 23.8523 24.1708 25.2075C25.1935 25.4035 26.6967 25.1274 25.7686 24.6554C23.8255 23.8284 24.0907 23.6648 25.4073 23.6109C25.6196 23.6022 26.0225 23.5532 25.8797 23.3958C25.8114 23.3206 25.681 23.2858 25.5825 23.2611C23.3402 22.6991 21.3509 22.4242 19.4745 22.4318Z" fill="#E7A604"/>
<path d="M0 20.0417C2.52496 19.2315 5.5537 19.2528 12.1302 19.5109C12.1801 19.5129 12.2269 19.5394 12.2533 19.5817L12.4392 19.8792C12.5029 19.9811 12.4249 20.1129 12.3047 20.1097C5.57386 19.9331 2.53949 19.8122 0 20.0417Z" fill="#6010D1"/>
<path d="M13.8316 19.3895C13.1073 21.0991 12.7245 20.8516 12.0602 19.5026C9.36306 15.8359 8.54516 14.7707 8.14062 13.4724L9.72354 15.093V14.8669L9.23359 14.1885C10.3566 15.249 11.0342 15.8992 12.3994 17.2413L13.8316 19.3895Z" fill="#20B708"/>
</svg>
