<svg width="40" height="40" viewBox="0 0 40 40" fill="none" xmlns="http://www.w3.org/2000/svg">
<path fill-rule="evenodd" clip-rule="evenodd" d="M36.6666 20C36.6666 29.2042 29.2041 36.6667 19.9999 36.6667C10.7958 36.6667 3.33325 29.2042 3.33325 20C3.33325 10.7958 10.7958 3.33334 19.9999 3.33334C29.2041 3.33334 36.6666 10.7958 36.6666 20Z" fill="url(#paint0_linear_35_165)"/>
<path fill-rule="evenodd" clip-rule="evenodd" d="M24.3284 22.4683C23.6325 23.2308 22.6559 23.6167 22.1984 23.6167C21.6692 23.6167 21.38 23.2925 21.3209 22.805C21.3009 22.6183 21.3075 22.43 21.3409 22.2442C21.5159 21.1525 21.9175 20.4742 21.8925 20.2675C21.885 20.2083 21.8517 20.1792 21.8084 20.1792C21.47 20.1792 20.2834 21.4042 20.1034 22.215L19.9634 22.8642C19.8717 23.3217 19.4234 23.6158 19.115 23.6158C18.9675 23.6158 18.8559 23.5425 18.8367 23.38C18.8309 23.3058 18.8367 23.2317 18.8542 23.1583L18.92 22.8167C18.28 23.295 17.59 23.6183 17.2667 23.6183C16.825 23.6183 16.5775 23.3825 16.4892 23.0275C16.1975 23.4117 15.8117 23.6183 15.4009 23.6183C14.8759 23.6183 14.37 23.2708 14.1275 22.7567C13.7817 23.145 13.3717 23.525 12.8809 23.8392C12.1567 24.2975 11.3509 24.6658 10.3959 24.6658C9.5142 24.6658 8.76586 24.1942 8.3517 23.8108C7.73753 23.2358 7.41336 22.3792 7.31753 21.5975C7.01586 19.1333 8.51586 15.9025 10.84 14.4867C11.3734 14.1617 11.9709 14 12.5134 14C13.63 14 14.4634 14.7983 14.58 15.7533C14.685 16.6133 14.3417 17.3567 13.3875 17.8375C12.9009 18.0842 12.6592 18.0725 12.5834 17.955C12.5325 17.8767 12.5617 17.7433 12.6592 17.6625C13.5559 16.9133 13.5725 16.2983 13.4675 15.4317C13.3992 14.8742 13.0325 14.5167 12.6209 14.5167C10.8584 14.5167 8.33003 18.4708 8.6817 21.3475C8.8192 22.4692 9.5067 23.7675 10.9167 23.7675C11.3867 23.7675 11.885 23.635 12.3284 23.4133C13.1017 23.0183 13.5392 22.705 13.9784 22.1933C13.87 20.8633 15.0117 19.1933 16.71 19.1933C17.445 19.1933 18.0534 19.4883 18.125 20.0783C18.215 20.8158 17.5867 20.9633 17.3517 20.9633C17.1459 20.9633 16.8159 20.9042 16.7925 20.7125C16.7675 20.5058 17.2375 20.6242 17.1792 20.1517C17.1434 19.8567 16.8367 19.7533 16.5434 19.7533C15.4859 19.7533 14.9017 21.2283 15.0142 22.1442C15.065 22.5575 15.2767 22.97 15.6592 22.97C15.9675 22.97 16.4125 22.5275 16.5834 21.8783C16.6917 21.4358 17.11 21.1408 17.4192 21.1408C17.5809 21.1408 17.6925 21.2142 17.7125 21.3767C17.7192 21.4358 17.7142 21.51 17.695 21.5983C17.66 21.79 17.5125 22.4283 17.52 22.56C17.525 22.675 17.5917 22.8333 17.7917 22.8333C17.95 22.8333 18.5334 22.5183 19.0734 22.035C19.2425 21.1592 19.4517 20.0758 19.4684 19.99C19.5342 19.635 19.6617 19.2692 20.3817 19.2692C20.5292 19.2692 20.6409 19.3425 20.6625 19.52C20.6692 19.5783 20.6642 19.6533 20.645 19.7417L20.4434 20.6525C21.075 19.8108 22.0567 19.1925 22.645 19.1925C22.895 19.1925 23.0875 19.3242 23.12 19.5908C23.1384 19.7392 23.095 19.9892 22.9975 20.2692C22.7884 20.8442 22.5534 21.7083 22.3975 22.4525C22.3642 22.6108 22.4192 22.8492 22.7084 22.8492C22.9392 22.8492 23.68 22.5667 24.2792 21.7758C24.275 21.6642 24.2734 21.5508 24.2734 21.4358C24.2734 20.8158 24.3175 20.3142 24.435 19.9467C24.5525 19.5625 25.0375 19.195 25.36 19.195C25.5217 19.195 25.6392 19.2833 25.6392 19.46C25.6392 19.5192 25.6242 19.5933 25.595 19.6667C25.375 20.3158 25.2575 20.9217 25.2575 21.5258C25.2575 21.865 25.3309 22.4108 25.405 22.6908C25.42 22.75 25.4334 22.8092 25.4925 22.8092C25.595 22.8092 26.2859 22.1308 26.785 21.3042C26.3434 21.0233 26.0942 20.5075 26.0942 19.8725C26.0942 18.8108 26.7259 18.2642 27.3425 18.2642C27.8275 18.2642 28.2675 18.6183 28.2675 19.3258C28.2675 19.7692 28.0909 20.2708 27.8425 20.7575C27.8425 20.7575 27.945 20.7725 27.9892 20.7725C28.3709 20.7725 28.665 20.595 28.8275 20.4033C28.9009 20.32 28.9692 20.255 29.0342 20.2167C29.5259 19.6225 30.2467 19.1933 31.0925 19.1933C31.8125 19.1933 32.4342 19.4742 32.5059 20.0642C32.5975 20.8158 31.955 20.9642 31.7342 20.9642C31.5142 20.9642 31.1834 20.905 31.16 20.7133C31.1367 20.5217 31.6192 20.625 31.5634 20.1683C31.5275 19.8733 31.2192 19.755 30.925 19.755C29.94 19.755 29.2634 21.0683 29.3934 22.13C29.445 22.5583 29.6425 22.9717 30.025 22.9717C30.3334 22.9717 30.7942 22.5283 30.9642 21.88C31.0734 21.4517 31.4909 21.1425 31.7992 21.1425C31.9459 21.1425 32.0725 21.2158 32.0942 21.3933C32.105 21.4817 32.0692 21.6742 31.905 22.3667C31.8375 22.6617 31.8242 22.9125 31.85 23.1192C31.9025 23.5475 32.0984 23.8275 32.28 23.99C32.3459 24.0483 32.385 24.1217 32.39 24.1675C32.4042 24.2858 32.3142 24.3892 32.1675 24.3892C32.1234 24.3892 32.065 24.3892 32.0167 24.36C31.26 24.05 30.9459 23.5342 30.8575 23.0467C30.5659 23.415 30.1792 23.6217 29.7825 23.6217C29.1067 23.6217 28.4467 23.0308 28.3534 22.2642C28.315 21.9492 28.3525 21.61 28.4559 21.2775C28.1817 21.4467 27.8867 21.5408 27.6217 21.5408C27.5334 21.5408 27.46 21.5408 27.3725 21.5258C26.7117 22.4842 26.0209 23.1483 25.4917 23.4442C25.2717 23.5625 25.0667 23.6217 24.9192 23.6217C24.8009 23.6217 24.6692 23.5925 24.6109 23.4892C24.4725 23.2583 24.3817 22.895 24.3284 22.4683ZM26.7225 19.3258C26.7225 19.7392 26.9275 20.1675 27.1925 20.4475C27.2959 20.1667 27.3542 19.8867 27.3542 19.6058C27.3542 19.0742 27.1484 18.8383 26.9867 18.8383C26.7959 18.8383 26.7225 19.105 26.7225 19.3258Z" fill="white"/>
<defs>
<linearGradient id="paint0_linear_35_165" x1="31.8858" y1="33.1083" x2="8.45825" y2="7.27084" gradientUnits="userSpaceOnUse">
<stop stop-color="#823AF3"/>
<stop offset="0.36" stop-color="#4B66E1"/>
<stop offset="0.906" stop-color="#01F1C4"/>
</linearGradient>
</defs>
</svg>
