<svg width="760" height="1000" viewBox="0 0 760 1000" fill="none" xmlns="http://www.w3.org/2000/svg">
<g clip-path="url(#clip0_286_35)">
<path d="M818.307 432.143C798.071 432.143 777.07 430.367 756.933 432.38C749.762 433.097 746.225 438.945 738.924 439.845C725.111 441.548 713.564 438.811 704.445 427.641C697.355 418.956 694.116 401.346 681.637 398.672C672.183 396.646 661.968 400.933 653.498 404.596C641.726 409.687 629.728 415.351 619.079 422.546C607.917 430.088 592.266 441.3 596.271 456.788C599.322 468.583 610.255 478.383 617.302 487.83C626.858 500.642 635.629 514.598 642.005 529.299C643.477 532.691 648.64 543.436 642.775 545.531C638.493 547.06 633.052 546.897 628.617 547.071C617.216 547.517 605.781 547.308 594.375 547.308" stroke="white" stroke-opacity="0.2" stroke-width="12.9825" stroke-linecap="round"/>
<path d="M525.064 531.313C525.064 517.116 526.13 502.91 526.13 488.659C526.13 477.801 526.248 466.935 526.13 456.077C526.029 446.774 520.945 442.053 514.164 436.172C507.907 430.746 497.222 423.663 494.614 415.319C491.753 406.163 509.618 401.25 515.112 398.85C532.781 391.129 551.159 386.039 569.376 379.893C578.153 376.931 589.799 373 595.324 364.964C605.742 349.81 594.822 327.12 577.907 323.495C557.422 319.105 534.739 321.02 513.927 321.303C497.952 321.52 482.382 323.421 466.652 326.042C460.351 327.093 453.278 328.306 447.695 331.552C436.516 338.051 428.156 350.795 421.096 361.232C419.274 363.925 412.904 373.527 415.883 377.167C418.15 379.938 422.719 381.132 425.658 383.092C428.396 384.917 428.478 387.918 426.487 390.556C419.45 399.879 398.841 400.935 388.573 402.049C370.151 404.046 351.754 403.96 334.426 396.717C321.565 391.341 310.317 383.172 297.934 376.931C293.506 374.699 270.676 363.577 274.356 378.471C278.138 393.78 290.089 408.505 300.066 420.177C311.594 433.662 322.771 442.873 341.061 443.754C353.504 444.354 366.044 444.939 378.502 444.939C390.606 444.939 402.46 443.237 414.52 442.866C427.075 442.48 444.918 440.279 448.643 456.195C454.26 480.193 430.96 496.018 416.297 511.112C407.099 520.581 397.775 530.929 391.298 542.509C386.9 550.372 382.329 559.581 373.644 563.303" stroke="white" stroke-opacity="0.2" stroke-width="12.9825" stroke-linecap="round"/>
<path d="M785.251 343.637C751.784 343.637 718.234 344.384 684.778 343.578C661.559 343.018 632.321 323.508 626.011 300.509C621.719 284.868 624.234 266.326 624.234 250.273C624.234 240.368 627.236 224.563 617.065 218.46C605.626 211.597 589.319 213.543 576.663 213.543C554.291 213.543 532.71 213.988 510.609 217.809C482.818 222.614 461.113 235.79 438.157 251.458C416.254 266.407 400.267 281.634 397.577 309.277C396.498 320.366 396.969 331.79 397.103 342.926C397.12 344.274 399.301 352.403 396.866 351.457C369.776 340.922 347.342 316.713 335.374 290.853C328.851 276.759 324.937 262.255 323.111 246.837C322.199 239.131 319.545 224.721 327.554 219.941C330.599 218.124 333.816 217.891 337.27 217.572C345.986 216.767 354.673 215.626 363.336 214.373C396.674 209.55 430.5 201.975 462.387 191.032C503.161 177.038 539.786 153.487 579.447 137.004C615.816 121.89 655 121.838 693.723 121.838C699.374 121.838 709.832 123.662 713.214 117.514C715.836 112.745 715.897 107.012 719.375 102.644C721.61 99.8377 725.747 95.4403 729.801 95.6537C736.892 96.0269 740.562 114.197 742.123 118.935C748.331 137.773 754.572 156.098 767.301 171.719C784.358 192.653 807.636 201.46 832.999 208.212C850.646 212.909 868.985 216.843 884.243 227.406C889.499 231.045 894.032 235.591 899.349 239.136" stroke="white" stroke-opacity="0.2" stroke-width="12.9825" stroke-linecap="round"/>
<path d="M725.535 -69.0366C725.535 -40.1185 701.793 -25.675 685.488 -5.29316C682.792 -1.92387 684.351 0.249159 687.62 2.40817C696.506 8.27618 706.252 13.2664 715.345 18.8772C722.228 23.1242 728.287 27.8242 730.274 36.0571C732.302 44.4594 730.488 54.6862 722.928 59.7535C716.786 63.8708 708.417 64.4009 701.305 65.2629C689.136 66.738 676.759 66.8848 664.516 67.2179C624.773 68.2994 586.443 63.9072 547.219 57.7986C509.248 51.885 470.319 40.2709 431.64 40.9741C422.812 41.1346 415.953 42.6351 409.898 49.3271C404.77 54.9955 400.233 61.1878 394.97 66.744C386.314 75.8807 375.249 82.2651 362.446 82.2651C345.848 82.2651 336.32 67.9625 339.164 52.0522C341.551 38.7043 352.024 29.487 363.039 22.6686C386.249 8.30003 413.904 1.18359 440.111 -5.41165C463.643 -11.3334 487.473 -15.9549 511.201 -20.992C525.163 -23.9562 540.553 -26.6738 551.899 -36.0393C566.168 -47.8167 564.897 -66.9933 564.399 -83.7876C563.575 -111.591 556.287 -137.143 546.39 -162.874" stroke="white" stroke-opacity="0.2" stroke-width="12.9825" stroke-linecap="round"/>
<path d="M330.99 -21.0511C325.574 -16.7961 319.136 -14.2263 313.869 -9.61755C302.943 -0.0567873 292.36 11.5765 286.322 24.8608C277.306 44.6972 270.954 71.2926 285.73 89.8482C292.202 97.9758 299.125 105.998 308.597 110.701C319.592 116.16 333.053 116.429 345.089 116.507C360.706 116.607 373.628 114.365 388.217 108.568C406.485 101.31 424.076 93.4967 443.311 89.0188C452.953 86.7741 462.331 86.6492 472.161 86.6492C476.716 86.6492 484.775 85.0526 488.749 87.834C496.86 93.512 493.279 112.096 490.23 119.291C478.349 147.331 447.09 155.576 419.259 158.094C380.552 161.596 340.804 159.16 301.962 159.16C281.516 159.16 250.494 154.905 235.079 172.134C212.932 196.886 230.533 235.195 240.173 260.818C243.307 269.147 248.094 280.404 246.512 289.609C245.198 297.257 229.039 291.843 225.304 290.675C199.801 282.706 174.546 269.433 152.082 255.131C132.423 242.615 115.866 226.533 105.4 205.487C92.3806 179.305 90.1641 138.183 103.682 112.064C115.846 88.5593 131.997 67.6056 141.952 42.8701C154.246 12.3193 153.354 -22.2328 143.788 -53.456C135.346 -81.0108 119.601 -106.283 103.978 -130.292C100.091 -136.265 94.1005 -141.725 90.8266 -147.945C88.1932 -152.949 100.422 -161.362 103.86 -163.941" stroke="white" stroke-opacity="0.2" stroke-width="12.9825" stroke-linecap="round"/>
<path d="M51.609 -49.8423C52.5079 -41.7522 54.1671 -35.1067 58.5995 -27.9231C69.4797 -10.2897 74.4136 9.51855 75.8979 30.1332C76.349 36.3982 76.8241 43.4816 76.0164 49.742C75.3166 55.1653 69.5665 57.4905 65.4714 60.0499C50.3926 69.4742 43.1097 88.6638 36.6803 104.303C35.8396 106.348 33.0993 114.124 29.6306 111.471C22.4233 105.96 16.9736 94.77 12.7469 87.0046C6.64123 75.7872 3.15622 63.8567 0.424733 51.46C-2.96347 36.0827 -10.6772 23.3485 -18.5324 9.87272C-32.4415 -13.9886 -43.5322 -39.183 -59.7642 -61.572C-67.0304 -71.5944 -69.7128 -81.6945 -72.0863 -93.5622" stroke="white" stroke-opacity="0.2" stroke-width="12.9825" stroke-linecap="round"/>
<path d="M-142.464 -45.5768C-138.038 -45.5768 -133.82 -44.1289 -129.431 -43.6811C-120.192 -42.7384 -110.09 -42.5817 -101.528 -38.5864C-86.9836 -31.7988 -88.8014 -17.5193 -89.2063 -3.75262C-90.1893 29.668 -103.941 60.1138 -98.4479 94.1729C-93.7484 123.31 -74.2747 144.766 -50.8774 161.293C-14.727 186.828 23.6736 210.876 62.0361 233.034C67.4245 236.146 125.759 260.357 113.813 273.259C109.874 277.512 102.038 278.628 96.8699 280.131C78.9091 285.352 61.3357 291.383 44.0268 298.495C5.21339 314.443 -33.1224 332.565 -75.2847 337.595C-101.38 340.707 -129.866 340.868 -155.379 333.803C-182.635 326.255 -207.657 312.367 -235.236 305.723C-249.225 302.352 -272.992 295.158 -287.131 302.228C-296.62 306.972 -294.65 326.682 -294.951 335.106" stroke="white" stroke-opacity="0.2" stroke-width="12.9825" stroke-linecap="round"/>
<path d="M-174.455 393.755C-203.483 393.755 -116.399 393.755 -87.3706 393.755C-56.0366 393.755 -22.0138 397.039 8.5999 388.897C20.588 385.709 30.3256 379.745 40.4716 372.902C49.4287 366.861 58.1849 360.378 66.7746 353.827C79.4143 344.186 93.1084 336.196 105.755 326.576C113.08 321.004 120.559 315.672 127.556 309.751C129.049 308.488 133.001 309.783 133.954 311.055C138.518 317.14 138.814 326.23 139.582 333.448C140.313 340.321 141.974 346.475 143.314 353.175C147.317 373.189 137.417 384.372 118.729 392.867C70.7381 414.681 16.8049 421.661 -34.1722 433.21C-55.1862 437.97 -77.2542 443.081 -96.3161 453.529C-106.021 458.849 -114.345 466.453 -117.465 477.404C-121.553 491.75 -116.242 506.636 -109.349 519.169C-96.0058 543.429 -76.8973 564.673 -59.6458 586.17C-46.9545 601.985 -34.4741 619.528 -18.7695 632.615" stroke="white" stroke-opacity="0.2" stroke-width="12.9825" stroke-linecap="round"/>
<path d="M206.228 537.711C206.228 500.826 205.955 463.932 206.228 427.049C206.328 413.512 212.829 396.085 204.155 384.158C200.968 379.776 199.933 373.278 201.607 368.104C204.794 358.252 215.913 346.899 223.29 339.964C230.235 333.436 237.129 327.245 244.557 321.303C246.158 320.022 249.659 318.226 249.948 315.912C250.051 315.091 252.282 312.713 253.147 312.713C255.443 312.713 251.264 318.487 250.777 319.348C245.958 327.875 244.68 337.425 244.616 347.073C244.485 367.028 245.683 386.944 245.683 406.907C245.683 421.227 245.975 436.539 252.91 449.442C264.513 471.029 279.79 488.455 298.229 504.417C312.535 516.801 321.665 528.545 328.324 546.597C335.741 566.706 339.521 586.726 339.521 608.089" stroke="white" stroke-opacity="0.2" stroke-width="12.9825" stroke-linecap="round"/>
</g>
<g clip-path="url(#clip1_286_35)">
<path d="M818.307 567.857C798.071 567.857 777.07 569.633 756.933 567.62C749.762 566.903 746.225 561.055 738.924 560.155C725.111 558.452 713.564 561.189 704.445 572.359C697.355 581.044 694.116 598.654 681.637 601.328C672.183 603.354 661.968 599.067 653.498 595.404C641.726 590.313 629.728 584.649 619.079 577.454C607.917 569.912 592.266 558.7 596.271 543.212C599.322 531.417 610.255 521.617 617.302 512.17C626.858 499.358 635.629 485.402 642.005 470.701C643.477 467.309 648.64 456.564 642.775 454.469C638.493 452.94 633.052 453.103 628.617 452.929C617.216 452.483 605.781 452.692 594.375 452.692" stroke="white" stroke-opacity="0.2" stroke-width="12.9825" stroke-linecap="round"/>
<path d="M525.064 468.687C525.064 482.884 526.13 497.09 526.13 511.341C526.13 522.199 526.248 533.065 526.13 543.923C526.029 553.226 520.945 557.947 514.164 563.828C507.907 569.254 497.222 576.337 494.614 584.681C491.753 593.837 509.618 598.75 515.112 601.15C532.781 608.871 551.159 613.961 569.376 620.107C578.153 623.069 589.799 627 595.324 635.036C605.742 650.19 594.822 672.88 577.907 676.505C557.422 680.895 534.739 678.98 513.927 678.697C497.952 678.48 482.382 676.579 466.652 673.958C460.351 672.907 453.278 671.694 447.695 668.448C436.516 661.949 428.156 649.205 421.096 638.768C419.274 636.075 412.904 626.473 415.883 622.833C418.15 620.062 422.719 618.868 425.658 616.908C428.396 615.083 428.478 612.082 426.487 609.444C419.45 600.121 398.841 599.065 388.573 597.951C370.151 595.954 351.754 596.04 334.426 603.283C321.565 608.659 310.317 616.828 297.934 623.069C293.506 625.301 270.676 636.423 274.356 621.529C278.138 606.22 290.089 591.495 300.066 579.823C311.594 566.338 322.771 557.127 341.061 556.246C353.504 555.646 366.044 555.061 378.502 555.061C390.606 555.061 402.46 556.763 414.52 557.134C427.075 557.52 444.918 559.721 448.643 543.805C454.26 519.807 430.96 503.982 416.297 488.888C407.099 479.419 397.775 469.071 391.298 457.491C386.9 449.628 382.329 440.419 373.644 436.697" stroke="white" stroke-opacity="0.2" stroke-width="12.9825" stroke-linecap="round"/>
<path d="M785.251 656.363C751.784 656.363 718.234 655.616 684.778 656.422C661.559 656.982 632.321 676.492 626.011 699.491C621.719 715.132 624.234 733.674 624.234 749.727C624.234 759.632 627.236 775.437 617.065 781.54C605.626 788.403 589.319 786.457 576.663 786.457C554.291 786.457 532.71 786.012 510.609 782.191C482.818 777.386 461.113 764.21 438.157 748.542C416.254 733.593 400.267 718.366 397.577 690.723C396.498 679.634 396.969 668.21 397.103 657.074C397.12 655.726 399.301 647.597 396.866 648.543C369.776 659.078 347.342 683.287 335.374 709.147C328.851 723.241 324.937 737.745 323.111 753.163C322.199 760.869 319.545 775.279 327.554 780.059C330.599 781.876 333.816 782.109 337.27 782.428C345.986 783.233 354.673 784.374 363.336 785.627C396.674 790.45 430.5 798.025 462.387 808.968C503.161 822.962 539.786 846.513 579.447 862.996C615.816 878.11 655 878.162 693.723 878.162C699.374 878.162 709.832 876.338 713.214 882.486C715.836 887.255 715.897 892.988 719.375 897.356C721.61 900.162 725.747 904.56 729.801 904.346C736.892 903.973 740.562 885.803 742.123 881.065C748.331 862.227 754.572 843.902 767.301 828.281C784.358 807.347 807.636 798.54 832.999 791.788C850.646 787.091 868.985 783.157 884.243 772.594C889.499 768.955 894.032 764.409 899.349 760.864" stroke="white" stroke-opacity="0.2" stroke-width="12.9825" stroke-linecap="round"/>
<path d="M725.535 1069.04C725.535 1040.12 701.793 1025.67 685.488 1005.29C682.792 1001.92 684.351 999.751 687.62 997.592C696.506 991.724 706.252 986.734 715.345 981.123C722.228 976.876 728.287 972.176 730.274 963.943C732.302 955.541 730.488 945.314 722.928 940.246C716.786 936.129 708.417 935.599 701.305 934.737C689.136 933.262 676.759 933.115 664.516 932.782C624.773 931.701 586.443 936.093 547.219 942.201C509.248 948.115 470.319 959.729 431.64 959.026C422.812 958.865 415.953 957.365 409.898 950.673C404.77 945.005 400.233 938.812 394.97 933.256C386.314 924.119 375.249 917.735 362.446 917.735C345.848 917.735 336.32 932.038 339.164 947.948C341.551 961.296 352.024 970.513 363.039 977.331C386.249 991.7 413.904 998.816 440.111 1005.41C463.643 1011.33 487.473 1015.95 511.201 1020.99C525.163 1023.96 540.553 1026.67 551.899 1036.04C566.168 1047.82 564.897 1066.99 564.399 1083.79C563.575 1111.59 556.287 1137.14 546.39 1162.87" stroke="white" stroke-opacity="0.2" stroke-width="12.9825" stroke-linecap="round"/>
<path d="M330.99 1021.05C325.574 1016.8 319.136 1014.23 313.869 1009.62C302.943 1000.06 292.36 988.423 286.322 975.139C277.306 955.303 270.954 928.707 285.73 910.152C292.202 902.024 299.125 894.002 308.597 889.299C319.592 883.84 333.053 883.571 345.089 883.493C360.706 883.393 373.628 885.635 388.217 891.432C406.485 898.69 424.076 906.503 443.311 910.981C452.953 913.226 462.331 913.351 472.161 913.351C476.716 913.351 484.775 914.947 488.749 912.166C496.86 906.488 493.279 887.904 490.23 880.709C478.349 852.669 447.09 844.424 419.259 841.906C380.552 838.404 340.804 840.84 301.962 840.84C281.516 840.84 250.494 845.095 235.079 827.866C212.932 803.114 230.533 764.805 240.173 739.182C243.307 730.853 248.094 719.596 246.512 710.391C245.198 702.743 229.039 708.157 225.304 709.325C199.801 717.294 174.546 730.567 152.082 744.869C132.423 757.385 115.866 773.467 105.4 794.513C92.3806 820.695 90.1641 861.817 103.682 887.936C115.846 911.441 131.997 932.394 141.952 957.13C154.246 987.681 153.354 1022.23 143.788 1053.46C135.346 1081.01 119.601 1106.28 103.978 1130.29C100.091 1136.27 94.1005 1141.73 90.8266 1147.95C88.1932 1152.95 100.422 1161.36 103.86 1163.94" stroke="white" stroke-opacity="0.2" stroke-width="12.9825" stroke-linecap="round"/>
<path d="M51.609 1049.84C52.5079 1041.75 54.1671 1035.11 58.5995 1027.92C69.4797 1010.29 74.4136 990.481 75.8979 969.867C76.349 963.602 76.8241 956.518 76.0164 950.258C75.3166 944.835 69.5665 942.51 65.4714 939.95C50.3926 930.526 43.1097 911.336 36.6803 895.697C35.8396 893.652 33.0993 885.876 29.6306 888.529C22.4233 894.04 16.9736 905.23 12.7469 912.995C6.64123 924.213 3.15622 936.143 0.424733 948.54C-2.96347 963.917 -10.6772 976.651 -18.5324 990.127C-32.4415 1013.99 -43.5322 1039.18 -59.7642 1061.57C-67.0304 1071.59 -69.7128 1081.69 -72.0863 1093.56" stroke="white" stroke-opacity="0.2" stroke-width="12.9825" stroke-linecap="round"/>
<path d="M-142.464 1045.58C-138.038 1045.58 -133.82 1044.13 -129.431 1043.68C-120.192 1042.74 -110.09 1042.58 -101.528 1038.59C-86.9836 1031.8 -88.8014 1017.52 -89.2063 1003.75C-90.1893 970.332 -103.941 939.886 -98.4479 905.827C-93.7484 876.69 -74.2747 855.234 -50.8774 838.707C-14.727 813.172 23.6736 789.124 62.0361 766.966C67.4245 763.854 125.759 739.643 113.813 726.741C109.874 722.488 102.038 721.372 96.8699 719.869C78.9091 714.648 61.3357 708.617 44.0268 701.505C5.21339 685.557 -33.1224 667.435 -75.2847 662.405C-101.38 659.293 -129.866 659.132 -155.379 666.197C-182.635 673.745 -207.657 687.633 -235.236 694.277C-249.225 697.648 -272.992 704.842 -287.131 697.772C-296.62 693.028 -294.65 673.318 -294.951 664.894" stroke="white" stroke-opacity="0.2" stroke-width="12.9825" stroke-linecap="round"/>
<path d="M-174.455 606.245C-203.483 606.245 -116.399 606.245 -87.3706 606.245C-56.0366 606.245 -22.0138 602.961 8.5999 611.103C20.588 614.291 30.3256 620.255 40.4716 627.098C49.4287 633.139 58.1849 639.622 66.7746 646.173C79.4143 655.814 93.1084 663.804 105.755 673.424C113.08 678.996 120.559 684.328 127.556 690.249C129.049 691.512 133.001 690.217 133.954 688.945C138.518 682.86 138.814 673.77 139.582 666.552C140.313 659.679 141.974 653.525 143.314 646.825C147.317 626.811 137.417 615.628 118.729 607.133C70.7381 585.319 16.8049 578.339 -34.1722 566.79C-55.1862 562.03 -77.2542 556.919 -96.3161 546.471C-106.021 541.151 -114.345 533.547 -117.465 522.596C-121.553 508.25 -116.242 493.364 -109.349 480.831C-96.0058 456.571 -76.8973 435.327 -59.6458 413.83C-46.9545 398.015 -34.4741 380.472 -18.7695 367.385" stroke="white" stroke-opacity="0.2" stroke-width="12.9825" stroke-linecap="round"/>
<path d="M206.228 462.289C206.228 499.174 205.955 536.068 206.228 572.951C206.328 586.488 212.829 603.915 204.155 615.842C200.968 620.224 199.933 626.722 201.607 631.896C204.794 641.748 215.913 653.101 223.29 660.036C230.235 666.564 237.129 672.755 244.557 678.697C246.158 679.978 249.659 681.774 249.948 684.088C250.051 684.909 252.282 687.287 253.147 687.287C255.443 687.287 251.264 681.513 250.777 680.652C245.958 672.125 244.68 662.575 244.616 652.927C244.485 632.972 245.683 613.056 245.683 593.093C245.683 578.773 245.975 563.461 252.91 550.558C264.513 528.971 279.79 511.545 298.229 495.583C312.535 483.199 321.665 471.455 328.324 453.403C335.741 433.294 339.521 413.274 339.521 391.911" stroke="white" stroke-opacity="0.2" stroke-width="12.9825" stroke-linecap="round"/>
</g>
<defs>
<clipPath id="clip0_286_35">
<rect width="760" height="500" fill="white" transform="matrix(-1 0 0 -1 760 500)"/>
</clipPath>
<clipPath id="clip1_286_35">
<rect width="760" height="500" fill="white" transform="matrix(-1 0 0 1 760 500)"/>
</clipPath>
</defs>
</svg>
