<svg width="822" height="463" viewBox="0 0 822 463" fill="none" xmlns="http://www.w3.org/2000/svg">
<g clip-path="url(#clip0_283_13)">
<path d="M875.973 399.562C857.242 399.562 837.801 397.917 819.161 399.781C812.523 400.445 809.249 405.857 802.49 406.691C789.704 408.267 779.015 405.734 770.574 395.394C764.012 387.354 761.013 371.053 749.462 368.578C740.71 366.703 731.255 370.671 723.414 374.062C712.517 378.774 701.41 384.018 691.553 390.678C681.221 397.659 666.732 408.038 670.44 422.374C673.264 433.293 683.385 442.365 689.908 451.109C698.754 462.969 706.873 475.888 712.775 489.496C714.137 492.636 718.917 502.583 713.488 504.522C709.524 505.938 704.487 505.787 700.382 505.947C689.829 506.36 679.244 506.167 668.685 506.167" stroke="white" stroke-opacity="0.2" stroke-width="12.0175" stroke-linecap="round"/>
<path d="M604.525 491.36C604.525 478.219 605.513 465.068 605.513 451.877C605.513 441.825 605.622 431.767 605.513 421.716C605.419 413.105 600.712 408.734 594.435 403.291C588.644 398.268 578.753 391.712 576.339 383.988C573.69 375.513 590.228 370.964 595.313 368.743C611.669 361.596 628.681 356.884 645.544 351.194C653.668 348.453 664.449 344.814 669.563 337.375C679.207 323.348 669.098 302.344 653.441 298.989C634.479 294.925 613.482 296.697 594.216 296.96C579.428 297.161 565.016 298.92 550.455 301.347C544.623 302.319 538.075 303.442 532.907 306.447C522.559 312.463 514.82 324.26 508.285 333.92C506.598 336.414 500.701 345.301 503.459 348.672C505.558 351.237 509.787 352.342 512.507 354.156C515.042 355.845 515.118 358.624 513.275 361.065C506.762 369.696 487.684 370.673 478.179 371.704C461.126 373.553 444.096 373.473 428.057 366.768C416.152 361.792 405.74 354.23 394.276 348.452C390.178 346.387 369.045 336.092 372.451 349.878C375.952 364.049 387.015 377.68 396.251 388.484C406.922 400.967 417.268 409.494 434.199 410.31C445.716 410.865 457.324 411.407 468.856 411.407C480.061 411.407 491.034 409.831 502.198 409.487C513.819 409.13 530.336 407.093 533.784 421.826C538.983 444.04 517.415 458.689 503.843 472.661C495.328 481.426 486.697 491.005 480.701 501.725C476.63 509.003 472.399 517.527 464.359 520.973" stroke="white" stroke-opacity="0.2" stroke-width="12.0175" stroke-linecap="round"/>
<path d="M845.374 317.633C814.394 317.633 783.338 318.325 752.368 317.579C730.875 317.061 703.811 299 697.969 277.711C693.996 263.233 696.324 246.069 696.324 231.209C696.324 222.04 699.103 207.41 689.689 201.761C679.1 195.407 664.004 197.209 652.289 197.209C631.58 197.209 611.603 197.62 591.145 201.157C565.419 205.605 545.327 217.802 524.078 232.305C503.803 246.144 489.003 260.239 486.514 285.827C485.515 296.092 485.951 306.667 486.075 316.975C486.09 318.224 488.109 325.748 485.856 324.872C460.779 315.12 440.012 292.71 428.934 268.773C422.896 255.726 419.272 242.301 417.582 228.028C416.738 220.895 414.281 207.556 421.695 203.132C424.514 201.449 427.491 201.233 430.689 200.938C438.757 200.193 446.798 199.137 454.817 197.977C485.678 193.513 516.99 186.501 546.506 176.371C584.25 163.417 618.153 141.616 654.866 126.358C688.532 112.368 724.804 112.32 760.649 112.32C765.88 112.32 775.561 114.008 778.691 108.317C781.119 103.902 781.174 98.5956 784.394 94.5524C786.462 91.9545 790.292 87.884 794.045 88.0815C800.609 88.4269 804.006 105.246 805.452 109.633C811.198 127.07 816.975 144.033 828.758 158.493C844.547 177.872 866.095 186.024 889.573 192.274C905.909 196.622 922.884 200.263 937.008 210.041C941.874 213.41 946.07 217.618 950.992 220.899" stroke="white" stroke-opacity="0.2" stroke-width="12.0175" stroke-linecap="round"/>
<path d="M790.097 -64.3683C790.097 -37.5996 768.12 -24.2295 753.026 -5.36259C750.531 -2.24372 751.974 -0.2322 755 1.76634C763.226 7.19822 772.247 11.8176 780.664 17.0113C787.036 20.9427 792.644 25.2934 794.484 32.9143C796.361 40.6922 794.681 50.1589 787.684 54.8495C781.998 58.6608 774.251 59.1515 767.668 59.9495C756.403 61.3149 744.946 61.4508 733.613 61.7591C696.824 62.7602 661.343 58.6945 625.034 53.0399C589.885 47.5658 553.849 36.8149 518.045 37.4659C509.873 37.6145 503.524 39.0034 497.92 45.1981C493.172 50.4451 488.973 56.1772 484.101 61.3204C476.088 69.7781 465.846 75.688 453.994 75.688C438.63 75.688 429.81 62.4484 432.443 47.7206C434.652 35.3648 444.347 26.8326 454.543 20.5209C476.029 7.22029 501.628 0.632776 525.887 -5.47227C547.669 -10.9539 569.728 -15.2319 591.693 -19.8947C604.617 -22.6385 618.863 -25.1541 629.366 -33.8235C642.575 -44.7256 641.398 -62.4769 640.937 -78.023C640.175 -103.76 633.428 -127.412 624.266 -151.232" stroke="white" stroke-opacity="0.2" stroke-width="12.0175" stroke-linecap="round"/>
<path d="M424.876 -19.9491C419.863 -16.0104 413.903 -13.6316 409.027 -9.36538C398.913 -0.515215 389.117 10.2535 383.528 22.5504C375.181 40.9124 369.302 65.5312 382.979 82.7077C388.97 90.2311 395.379 97.6572 404.147 102.011C414.325 107.064 426.785 107.313 437.927 107.385C452.383 107.478 464.345 105.402 477.849 100.036C494.76 93.3174 511.044 86.085 528.848 81.9399C537.774 79.862 546.455 79.7464 555.555 79.7464C559.771 79.7464 567.231 78.2684 570.909 80.8432C578.418 86.0991 575.102 103.301 572.28 109.962C561.282 135.918 532.347 143.55 506.584 145.881C470.754 149.123 433.96 146.868 398.005 146.868C379.079 146.868 350.362 142.93 336.093 158.878C315.592 181.79 331.885 217.252 340.809 240.97C343.71 248.68 348.141 259.1 346.677 267.621C345.46 274.701 330.502 269.689 327.045 268.609C303.437 261.231 280.06 248.945 259.265 235.706C241.067 224.12 225.74 209.234 216.052 189.751C204.001 165.516 201.949 127.45 214.462 103.272C225.723 81.5145 240.673 62.1182 249.887 39.2211C261.268 10.941 260.443 -21.043 251.587 -49.9455C243.773 -75.4523 229.198 -98.8461 214.736 -121.07C211.138 -126.6 205.593 -131.654 202.562 -137.412C200.125 -142.044 211.444 -149.832 214.627 -152.218" stroke="white" stroke-opacity="0.2" stroke-width="12.0175" stroke-linecap="round"/>
<path d="M166.26 -46.6005C167.092 -39.1118 168.628 -32.9601 172.731 -26.3105C182.802 -9.98766 187.369 8.34833 188.743 27.4308C189.161 33.2302 189.601 39.7871 188.853 45.5822C188.205 50.6024 182.883 52.7548 179.092 55.124C165.134 63.8478 158.392 81.6112 152.441 96.088C151.662 97.9808 149.126 105.179 145.915 102.723C139.243 97.6216 134.199 87.2636 130.286 80.0753C124.634 69.6916 121.408 58.6478 118.88 47.1725C115.743 32.9382 108.603 21.1504 101.332 8.67618C88.4562 -13.4117 78.1899 -36.7335 63.1643 -57.4585C56.4382 -66.7359 53.9551 -76.0853 51.758 -87.071" stroke="white" stroke-opacity="0.2" stroke-width="12.0175" stroke-linecap="round"/>
<path d="M-13.3892 -42.6523C-9.29248 -42.6523 -5.38719 -41.312 -1.32478 -40.8975C7.22719 -40.0249 16.5788 -39.8798 24.5039 -36.1815C37.9678 -29.8983 36.285 -16.6802 35.9102 -3.93669C35.0003 27 22.2704 55.1829 27.3555 86.7106C31.7058 113.682 49.732 133.544 71.3904 148.842C104.854 172.479 140.4 194.74 175.912 215.251C180.9 218.132 234.898 240.543 223.84 252.486C220.194 256.423 212.941 257.456 208.156 258.847C191.531 263.68 175.263 269.263 159.241 275.847C123.312 290.61 87.8258 307.384 48.7972 312.04C24.6411 314.922 -1.72776 315.07 -25.3438 308.53C-50.5743 301.543 -73.7371 288.688 -99.2655 282.537C-112.215 279.417 -134.215 272.758 -147.304 279.302C-156.088 283.694 -154.264 301.938 -154.542 309.737" stroke="white" stroke-opacity="0.2" stroke-width="12.0175" stroke-linecap="round"/>
<path d="M-43.0021 364.027C-69.8727 364.027 10.7392 364.027 37.6098 364.027C66.615 364.027 98.109 367.067 126.447 359.53C137.545 356.579 146.558 351.058 155.95 344.724C164.242 339.132 172.347 333.13 180.298 327.066C191.999 318.142 204.675 310.746 216.382 301.84C223.163 296.682 230.085 291.747 236.562 286.266C237.944 285.097 241.602 286.296 242.485 287.473C246.709 293.105 246.983 301.52 247.694 308.202C248.371 314.564 249.909 320.261 251.149 326.463C254.854 344.989 245.69 355.341 228.391 363.204C183.967 383.397 134.043 389.858 86.8544 400.549C67.4021 404.956 46.9743 409.686 29.3293 419.358C20.3455 424.283 12.6406 431.321 9.75213 441.458C5.96791 454.738 10.8845 468.518 17.2649 480.119C29.6165 502.576 47.3048 522.241 63.274 542.141C75.0221 556.78 86.5749 573.019 101.112 585.134" stroke="white" stroke-opacity="0.2" stroke-width="12.0175" stroke-linecap="round"/>
<path d="M309.386 497.283C309.386 463.14 309.134 428.988 309.386 394.846C309.479 382.315 315.497 366.183 307.467 355.143C304.517 351.087 303.559 345.072 305.109 340.282C308.059 331.163 318.351 320.653 325.18 314.234C331.609 308.191 337.991 302.46 344.867 296.96C346.349 295.774 349.589 294.111 349.857 291.97C349.952 291.209 352.018 289.008 352.818 289.008C354.943 289.008 351.075 294.353 350.625 295.15C346.163 303.043 344.98 311.883 344.921 320.814C344.8 339.286 345.909 357.722 345.909 376.201C345.909 389.457 346.179 403.63 352.599 415.574C363.34 435.558 377.481 451.688 394.55 466.464C407.792 477.927 416.244 488.798 422.408 505.509C429.273 524.123 432.772 542.655 432.772 562.431" stroke="white" stroke-opacity="0.2" stroke-width="12.0175" stroke-linecap="round"/>
</g>
<defs>
<clipPath id="clip0_283_13">
<rect width="822" height="462.375" fill="white" transform="matrix(-1 0 0 -1 822 462.375)"/>
</clipPath>
</defs>
</svg>
