<svg width="40" height="40" viewBox="0 0 40 40" fill="none" xmlns="http://www.w3.org/2000/svg">
<path d="M21.6667 14.1667H15.0001C11.7784 14.1667 9.16675 11.555 9.16675 8.33333C9.16675 5.11167 11.7784 2.5 15.0001 2.5H21.6667V14.1667Z" fill="#E64A19"/>
<path d="M20.8334 25.8333H15.0001C11.7784 25.8333 9.16675 23.2217 9.16675 20C9.16675 16.7783 11.7784 14.1667 15.0001 14.1667H20.8334V25.8333Z" fill="#7C4DFF"/>
<path d="M15.0001 37.5C11.7784 37.5 9.16675 34.8883 9.16675 31.6667C9.16675 28.445 11.7784 25.8333 15.0001 25.8333H20.8334V31.6667C20.8334 34.8883 18.2217 37.5 15.0001 37.5Z" fill="#66BB6A"/>
<path d="M26.6666 14.1667H20.8333V2.5H26.6666C29.8883 2.5 32.4999 5.11167 32.4999 8.33333C32.4999 11.555 29.8883 14.1667 26.6666 14.1667Z" fill="#FF7043"/>
<path d="M26.6666 25.8333C29.8882 25.8333 32.4999 23.2217 32.4999 20C32.4999 16.7783 29.8882 14.1667 26.6666 14.1667C23.4449 14.1667 20.8333 16.7783 20.8333 20C20.8333 23.2217 23.4449 25.8333 26.6666 25.8333Z" fill="#29B6F6"/>
</svg>
