<svg width="40" height="40" viewBox="0 0 40 40" fill="none" xmlns="http://www.w3.org/2000/svg">
<path d="M34.1666 4.16666H5.83325L8.33325 32.5L19.9999 35.8333L31.6666 32.5L34.1666 4.16666Z" fill="#E65100"/>
<path d="M20 6.66666V33.25L29.3333 30.5833L31.4167 6.66666H20Z" fill="#FF6D00"/>
<path d="M20 20.8333V17.5H27.1667L26.5833 27.0833L20 29.25V25.75L23.4167 24.5833L23.6667 20.8333H20ZM27.4167 14.1667L27.6667 10.8333H20V14.1667H27.4167Z" fill="white"/>
<path d="M20.0001 25.75V29.25L13.4167 27.0833L13.0834 22.5H16.4167L16.5834 24.5833L20.0001 25.75ZM15.9167 14.1667H20.0001V10.8333H12.4167L13.0001 20.8333H20.0001V17.5H16.1667L15.9167 14.1667Z" fill="#EEEEEE"/>
</svg>
