<svg width="40" height="40" viewBox="0 0 40 40" fill="none" xmlns="http://www.w3.org/2000/svg">
<path d="M20.0059 37.8492C19.5276 37.8492 19.0534 37.7242 18.6342 37.4825L14.2676 34.8967C13.6151 34.5317 13.9334 34.4025 14.1484 34.3283C15.0184 34.0242 15.1942 33.955 16.1226 33.4275C16.2201 33.3717 16.3476 33.3917 16.4476 33.4508L19.8026 35.4417C19.9234 35.5075 20.0959 35.5075 20.2076 35.4417L33.2884 27.8908C33.4092 27.8217 33.4884 27.6817 33.4884 27.5375V12.4433C33.4884 12.2925 33.4101 12.1583 33.2859 12.0833L20.2109 4.53834C20.0901 4.46667 19.9292 4.46667 19.8084 4.53834L6.73508 12.0825C6.60841 12.1542 6.52758 12.295 6.52758 12.4392V27.5342C6.52758 27.6783 6.60591 27.8158 6.73091 27.8842L10.3134 29.9533C12.2584 30.9258 13.4467 29.78 13.4467 28.6275V13.73C13.4467 13.5175 13.6134 13.3533 13.8267 13.3533H15.4834C15.6901 13.3533 15.8601 13.5167 15.8601 13.73V28.635C15.8601 31.2283 14.4459 32.7183 11.9867 32.7183C11.2301 32.7183 10.6342 32.7183 8.97091 31.9L5.53925 29.9225C4.69091 29.4308 4.16675 28.5133 4.16675 27.535V12.44C4.16675 11.4575 4.69091 10.5408 5.53841 10.0558L18.6334 2.50167C19.4617 2.03334 20.5617 2.03334 21.3842 2.50167L34.4626 10.0592C35.3059 10.5467 35.8334 11.4608 35.8334 12.4433V27.5383C35.8334 28.5175 35.3059 29.4308 34.4617 29.9225L21.3834 37.4758C20.9642 37.7183 20.4892 37.8425 20.0051 37.8425" fill="#21A366"/>
<path d="M24.0466 27.4475C18.3233 27.4475 17.1233 24.82 17.1233 22.6167C17.1233 22.4075 17.2925 22.24 17.5025 22.24H19.1925C19.3791 22.24 19.5366 22.3758 19.5658 22.56C19.8208 24.2817 20.5808 25.15 24.0416 25.15C26.7983 25.15 27.9708 24.5275 27.9708 23.065C27.9708 22.2233 27.6366 21.5983 23.3541 21.1792C19.7716 20.8258 17.5583 20.0367 17.5583 17.1717C17.5583 14.5325 19.785 12.9608 23.5141 12.9608C27.7025 12.9608 29.7783 14.415 30.04 17.5383C30.05 17.6467 30.0108 17.7508 29.9383 17.83C29.8666 17.905 29.765 17.9508 29.66 17.9508H27.9608C27.7841 17.9508 27.63 17.8267 27.5941 17.6558C27.185 15.845 26.1958 15.2658 23.5075 15.2658C20.4983 15.2658 20.1483 16.3133 20.1483 17.0992C20.1483 18.0517 20.5608 18.33 24.6208 18.8675C28.6416 19.4008 30.5508 20.1542 30.5508 22.98C30.5508 25.8283 28.1733 27.4625 24.0283 27.4625" fill="#21A366"/>
</svg>
