<svg width="40" height="40" viewBox="0 0 40 40" fill="none" xmlns="http://www.w3.org/2000/svg">
<path fill-rule="evenodd" clip-rule="evenodd" d="M9.62739 9.24915C10.6541 10.0833 11.0391 10.02 12.9674 9.89082L31.1441 8.79915C31.5299 8.79915 31.2091 8.41499 31.0807 8.35082L28.0624 6.16832C27.4841 5.71915 26.7132 5.20499 25.2366 5.33332L7.63656 6.61665C6.99489 6.67999 6.86656 7.00082 7.12239 7.25832L9.62739 9.24915Z" fill="white"/>
<path fill-rule="evenodd" clip-rule="evenodd" d="M10.7183 13.485V32.61C10.7183 33.6375 11.2316 34.0225 12.3883 33.9592L32.3641 32.8033C33.5208 32.74 33.6499 32.0325 33.6499 31.1975V12.2008C33.6499 11.3675 33.3291 10.9175 32.6216 10.9817L11.7466 12.2008C10.9758 12.265 10.7183 12.6508 10.7183 13.485Z" fill="white"/>
<path fill-rule="evenodd" clip-rule="evenodd" d="M9.62734 9.24916C10.654 10.0833 11.039 10.02 12.9673 9.89082L31.144 8.79916C31.5298 8.79916 31.209 8.41499 31.0807 8.35082L28.0623 6.16832C27.484 5.71916 26.7132 5.20499 25.2365 5.33332L7.6365 6.61666C6.99484 6.67999 6.8665 7.00082 7.12234 7.25832L9.62734 9.24916ZM10.7182 13.485V32.61C10.7182 33.6375 11.2315 34.0225 12.3882 33.9592L32.364 32.8033C33.5207 32.74 33.6498 32.0325 33.6498 31.1975V12.2008C33.6498 11.3675 33.329 10.9175 32.6215 10.9817L11.7465 12.2008C10.9757 12.265 10.7182 12.6508 10.7182 13.485ZM30.4382 14.5108C30.5665 15.0892 30.4382 15.6667 29.859 15.7317L28.8965 15.9233V30.0425C28.0607 30.4917 27.2898 30.7483 26.6482 30.7483C25.6198 30.7483 25.3623 30.4275 24.5923 29.465L18.2965 19.5817V29.1442L20.289 29.5933C20.289 29.5933 20.289 30.7483 18.6815 30.7483L14.2507 31.005C14.1223 30.7483 14.2507 30.1067 14.6998 29.9783L15.8565 29.6575V17.015L14.2507 16.8867C14.1215 16.3083 14.4423 15.475 15.3423 15.41L20.0957 15.0892L26.6473 25.1017V16.2442L24.9765 16.0525C24.8482 15.3458 25.3615 14.8325 26.004 14.7692L30.4382 14.5108ZM6.15734 4.88499L24.464 3.53666C26.7123 3.34416 27.2907 3.47332 28.7032 4.49916L34.5473 8.60666C35.5115 9.31332 35.8332 9.50582 35.8332 10.275V32.8017C35.8332 34.2133 35.319 35.0483 33.5207 35.1758L12.2607 36.46C10.9107 36.5242 10.2682 36.3317 9.5615 35.4333L5.25817 29.85C4.48734 28.8225 4.1665 28.0533 4.1665 27.1542V7.12999C4.1665 5.97582 4.68067 5.01249 6.15734 4.88499Z" fill="#424242"/>
</svg>
