<svg width="40" height="40" viewBox="0 0 40 40" fill="none" xmlns="http://www.w3.org/2000/svg">
<path d="M20.0393 4.16666C18.7435 4.17082 17.8451 4.28499 16.7593 4.47249C13.5526 5.03082 12.9685 6.20332 12.9685 8.36416V11.6667H20.4685V13.3333H12.6835H9.05845C6.86179 13.3333 4.93929 14.3683 4.33012 16.8492C3.64179 19.6967 3.61096 21.48 4.33012 24.4533C4.87596 26.6708 6.07845 28.3333 8.27595 28.3333H11.3026V24.08C11.3026 21.6083 13.541 19.1667 16.106 19.1667H22.136C24.2385 19.1667 26.3026 17.615 26.3026 15.5192V8.36416C26.3026 6.33166 24.8368 4.81166 22.7876 4.47082C22.8385 4.46582 21.3243 4.16166 20.0393 4.16666ZM15.886 7.49999C16.5701 7.49999 17.136 8.06416 17.136 8.75166C17.136 9.44582 16.5701 9.99999 15.886 9.99999C15.1885 9.99999 14.636 9.44666 14.636 8.75166C14.636 8.06666 15.1885 7.49999 15.886 7.49999Z" fill="#0277BD"/>
<path d="M19.2316 35.8333C20.5274 35.8292 21.4258 35.715 22.5116 35.5275C25.7183 34.9692 26.3024 33.7967 26.3024 31.6358V28.3333H18.8024V26.6667H26.5883H30.2133C32.4099 26.6667 34.3324 25.6317 34.9416 23.1508C35.6299 20.3033 35.6608 18.52 34.9416 15.5467C34.3949 13.3292 33.1924 11.6667 30.9949 11.6667H27.9683V15.92C27.9683 18.3917 25.7299 20.8333 23.1649 20.8333H17.1349C15.0324 20.8333 12.9683 22.385 12.9683 24.4808V31.6358C12.9683 33.6683 14.4341 35.1883 16.4833 35.5292C16.4324 35.5342 17.9466 35.8383 19.2316 35.8333ZM23.3858 32.5C22.7016 32.5 22.1358 31.9358 22.1358 31.2483C22.1358 30.5542 22.7016 30 23.3858 30C24.0833 30 24.6358 30.5533 24.6358 31.2483C24.6358 31.9333 24.0824 32.5 23.3858 32.5Z" fill="#FFC107"/>
</svg>
