<svg width="40" height="40" viewBox="0 0 40 40" fill="none" xmlns="http://www.w3.org/2000/svg">
<path d="M23.25 20C23.25 21.7965 21.7965 23.25 20 23.25C18.2035 23.25 16.75 21.7965 16.75 20C16.75 18.2035 18.2035 16.75 20 16.75C21.7965 16.75 23.25 18.2035 23.25 20Z" fill="#8BB7F0"/>
<path d="M20 23.5C18.0705 23.5 16.5 21.93 16.5 20C16.5 18.07 18.0705 16.5 20 16.5C21.9295 16.5 23.5 18.07 23.5 20C23.5 21.93 21.9295 23.5 20 23.5ZM20 17C18.3455 17 17 18.3455 17 20C17 21.6545 18.3455 23 20 23C21.6545 23 23 21.6545 23 20C23 18.3455 21.6545 17 20 17Z" fill="#4E7AB5"/>
<path d="M12.237 37.7515C11.3815 37.7515 10.6025 37.5555 9.921 37.1695C8.781 36.523 7.993 35.409 7.578 33.8595C7.0955 32.056 7.153 29.6605 7.744 26.9205C2.978 25.281 0.25 22.7655 0.25 20C0.25 17.234 2.9775 14.719 7.7435 13.08C7.1525 10.3395 7.0945 7.944 7.577 6.1405C7.992 4.5905 8.78 3.4765 9.9195 2.8305C10.6005 2.4445 11.38 2.2485 12.2355 2.2485C14.4295 2.2485 17.181 3.6135 20.001 6.0975C22.821 3.616 25.5715 2.252 27.763 2.252C28.6185 2.252 29.3975 2.448 30.079 2.834C31.2175 3.4795 32.006 4.5915 32.421 6.1395C32.904 7.9425 32.846 10.3385 32.2545 13.0795C37.0215 14.7185 39.75 17.234 39.75 20C39.75 22.766 37.0215 25.2815 32.2545 26.921C32.8455 29.6615 32.9035 32.057 32.4205 33.86C32.0055 35.4085 31.218 36.5205 30.0805 37.166C29.3985 37.552 28.619 37.748 27.764 37.748C25.571 37.748 22.8195 36.384 20.0005 33.9035C17.1805 36.387 14.4295 37.7515 12.237 37.7515ZM9.6685 27.503C9.173 29.8615 9.1175 31.8765 9.5105 33.3425C9.7815 34.3555 10.251 35.058 10.9075 35.43C11.284 35.6435 11.7315 35.752 12.237 35.752C13.934 35.752 16.168 34.611 18.5475 32.5335C17.355 31.3325 16.191 29.973 15.0835 28.488C13.168 28.28 11.348 27.949 9.6685 27.503ZM21.453 32.5325C23.832 34.608 26.0665 35.748 27.7635 35.7485C28.269 35.7485 28.7165 35.64 29.094 35.4265C29.7485 35.0555 30.217 34.3545 30.4875 33.343C30.8805 31.876 30.8255 29.8615 30.33 27.5035C28.649 27.9495 26.8285 28.2805 24.9135 28.4885C23.8065 29.9735 22.644 31.3325 21.453 32.5325ZM17.783 28.6965C18.509 29.5845 19.252 30.413 20 31.1665C20.746 30.4135 21.4895 29.585 22.215 28.6965C21.4695 28.732 20.727 28.75 20 28.75C19.2725 28.75 18.5295 28.732 17.783 28.6965ZM16.1745 26.5895C17.422 26.696 18.7085 26.75 20 26.75C21.2925 26.75 22.5775 26.696 23.823 26.59C24.566 25.548 25.2745 24.456 25.93 23.3425C26.564 22.265 27.1605 21.1405 27.7035 19.9995C27.162 18.8615 26.566 17.7375 25.9305 16.6575C25.2765 15.5465 24.568 14.4545 23.823 13.41C22.5785 13.304 21.2935 13.25 20 13.25C18.706 13.25 17.4205 13.304 16.1765 13.4105C15.4315 14.4535 14.722 15.5455 14.067 16.658C13.432 17.7375 12.836 18.8615 12.294 20.001C12.835 21.138 13.431 22.262 14.0665 23.343C14.7185 24.4505 15.427 25.542 16.1745 26.5895ZM28.7455 22.3895C28.3925 23.0625 28.0265 23.7225 27.653 24.3565C27.2765 24.9975 26.876 25.6405 26.46 26.2745C27.647 26.0915 28.7825 25.857 29.8455 25.5745C29.5505 24.55 29.181 23.4815 28.7455 22.3895ZM10.152 25.574C11.2155 25.856 12.3505 26.091 13.536 26.274C13.1175 25.636 12.717 24.9925 12.343 24.3565C11.9705 23.723 11.604 23.064 11.2515 22.391C10.818 23.478 10.449 24.5455 10.152 25.574ZM29.908 20C30.672 21.6955 31.2945 23.3715 31.762 24.9885C35.463 23.6865 37.75 21.787 37.75 20C37.75 18.213 35.463 16.3135 31.762 15.0115C31.2955 16.6285 30.6725 18.3045 29.908 20ZM8.236 15.0125C4.5365 16.314 2.25 18.2135 2.25 20C2.25 21.787 4.5365 23.6865 8.237 24.988C8.704 23.3705 9.3265 21.6945 10.0895 20.001C9.326 18.307 8.7035 16.631 8.236 15.0125ZM10.1515 14.426C10.4485 15.453 10.8175 16.521 11.2515 17.61C11.6035 16.939 11.9695 16.2795 12.3435 15.644C12.7195 15.0045 13.12 14.3615 13.5375 13.726C12.3505 13.9085 11.2155 14.1435 10.1515 14.426ZM26.461 13.7255C26.8795 14.364 27.28 15.007 27.654 15.644C28.027 16.2775 28.3935 16.937 28.7465 17.61C29.181 16.5215 29.55 15.4535 29.847 14.4255C28.782 14.143 27.647 13.908 26.461 13.7255ZM12.2355 4.2485C11.73 4.2485 11.283 4.3565 10.907 4.5705C10.251 4.9425 9.781 5.645 9.5095 6.658C9.117 8.1255 9.172 10.14 9.668 12.4975C11.348 12.0515 13.169 11.72 15.085 11.512C16.1935 10.0265 17.3575 8.668 18.5485 7.468C16.1685 5.3895 13.933 4.2485 12.2355 4.2485ZM24.914 11.5115C26.829 11.7195 28.6495 12.0505 30.3305 12.4965C30.8265 10.1385 30.882 8.1235 30.4885 6.6565C30.2175 5.6455 29.7485 4.9445 29.0935 4.5735C28.7165 4.36 28.269 4.2515 27.763 4.2515C26.0665 4.2515 23.833 5.392 21.4535 7.468C22.6435 8.6675 23.8065 10.0265 24.914 11.5115ZM20 11.25C20.727 11.25 21.4695 11.268 22.2155 11.3035C21.4905 10.4165 20.7475 9.58851 20.001 8.83451C19.2525 9.58951 18.51 10.4175 17.785 11.3035C18.5305 11.268 19.273 11.25 20 11.25Z" fill="#8BB7F0"/>
<path d="M12.2355 2.4985C14.4825 2.4985 17.2335 3.9535 20.0015 6.432C22.769 3.9555 25.5185 2.502 27.7635 2.502C28.575 2.502 29.313 2.687 29.9565 3.0515C31.0345 3.6625 31.7825 4.723 32.1795 6.2045C32.718 8.163 32.605 10.5745 31.9625 13.2445C36.5735 14.785 39.5 17.2155 39.5 20C39.5 22.7845 36.5735 25.215 31.962 26.756C32.6325 29.6425 32.745 32.119 32.179 33.7955C31.782 35.2765 31.0345 36.3375 29.9575 36.9485C29.313 37.3135 28.7275 37.5 27.9165 37.5C27.916 37.5 27.7085 37.5 27.708 37.5C25.462 37.5 22.767 36.045 20 33.5695C17.2325 36.0475 14.4825 37.5015 12.2365 37.5015C11.425 37.5015 10.687 37.3165 10.0435 36.952C8.9645 36.3395 8.216 35.2775 7.8195 33.795C7.2245 31.9365 7.3445 29.4935 8.0365 26.7555C3.426 25.2145 0.5 22.7845 0.5 20C0.5 17.216 3.426 14.7855 8.036 13.2445C7.6925 11.715 7.473 10.295 7.4655 9C7.4595 7.977 7.599 7.0255 7.819 6.205C8.216 4.722 8.964 3.66 10.043 3.048C10.686 2.683 11.424 2.4985 12.2355 2.4985ZM9.479 12.807C11.2175 12.3295 13.148 11.9685 15.2205 11.7485C16.4115 10.1435 17.658 8.7005 18.9135 7.4565C16.4775 5.2835 14.1055 3.998 12.2355 3.998C11.686 3.998 11.198 4.117 10.7835 4.3525C10.067 4.759 9.5575 5.5125 9.268 6.593C8.839 8.194 8.9365 10.358 9.479 12.807ZM30.5195 12.8065C31.062 10.3575 31.1595 8.193 30.7305 6.592C30.4415 5.5135 29.932 4.7615 29.217 4.356C28.802 4.1205 28.3125 4.0015 27.7635 4.0015C25.895 4.0015 23.5245 5.2855 21.089 7.4565C22.344 8.7005 23.589 10.1435 24.779 11.748C26.8505 11.968 28.781 12.329 30.5195 12.8065ZM17.2385 11.583C18.1395 11.5295 19.043 11.483 19.9825 11.483C20.922 11.483 21.86 11.53 22.761 11.583C21.857 10.4435 20.929 9.4025 20.0005 8.481C19.072 9.4025 18.1435 10.4435 17.2385 11.583ZM20 27C21.3805 27 22.702 26.9395 23.959 26.829C24.7185 25.7705 25.453 24.6465 26.145 23.4695C26.8215 22.32 27.4335 21.1565 27.98 20C27.4335 18.8435 26.8215 17.6805 26.1455 16.5315C25.453 15.354 24.719 14.2305 23.959 13.172C22.7025 13.0605 21.381 13 20 13C18.619 13 17.297 13.0605 16.04 13.1715C15.2795 14.23 14.5445 15.354 13.852 16.531C13.176 17.6805 12.564 18.844 12.0175 20.0005C12.564 21.157 13.1755 22.32 13.8515 23.469C14.544 24.646 15.2785 25.77 16.0385 26.8285C17.296 26.9395 18.6185 27 20 27ZM28.773 18.2065C29.3355 16.852 29.801 15.522 30.156 14.25C28.8795 13.899 27.4695 13.609 25.942 13.3965C26.456 14.16 26.9565 14.9515 27.438 15.7705C27.915 16.58 28.3585 17.394 28.773 18.2065ZM11.2245 18.207C11.6385 17.3945 12.0825 16.5805 12.5585 15.7705C13.0405 14.9515 13.5415 14.1605 14.056 13.397C12.5285 13.609 11.1185 13.8995 9.842 14.2505C10.197 15.5225 10.6625 16.852 11.2245 18.207ZM31.594 25.311C35.632 23.943 38 21.933 38 20C38 18.067 35.632 16.057 31.594 14.689C31.1175 16.3915 30.4595 18.1805 29.634 19.9995C30.4595 21.819 31.1175 23.608 31.594 25.311ZM8.405 25.3105C8.881 23.6085 9.5385 21.8195 10.364 20.001C9.5385 18.182 8.8805 16.3925 8.4045 14.69C4.367 16.058 2 18.0675 2 20C2 21.933 4.3675 23.9425 8.405 25.3105ZM25.942 26.6035C27.4695 26.3915 28.8795 26.1015 30.156 25.75C29.8005 24.478 29.335 23.148 28.773 21.793C28.3585 22.6055 27.9145 23.4195 27.438 24.2295C26.9565 25.0485 26.456 25.84 25.942 26.6035ZM14.0545 26.603C13.5405 25.8395 13.04 25.0485 12.558 24.23C12.082 23.4205 11.6385 22.607 11.2245 21.795C10.6625 23.149 10.1975 24.4785 9.8425 25.75C11.1185 26.1005 12.528 26.3905 14.0545 26.603ZM12.237 36.0015C14.1065 36.0015 16.4775 34.7165 18.913 32.5445C17.6565 31.3 16.4105 29.8565 15.219 28.251C13.1475 28.0315 11.218 27.6705 9.48 27.193C8.938 29.642 8.8405 31.806 9.269 33.407C9.558 34.487 10.068 35.2405 10.784 35.647C11.198 35.8825 11.6875 36.0015 12.237 36.0015ZM27.7635 35.9985C28.313 35.9985 28.8015 35.8795 29.217 35.644C29.932 35.2385 30.4405 34.4865 30.729 33.4075C31.158 31.806 31.0605 29.642 30.5185 27.1935C28.78 27.671 26.85 28.032 24.778 28.2515C23.588 29.8565 22.3425 31.2995 21.0875 32.544C23.523 34.714 25.894 35.998 27.7635 35.9985ZM20 31.52C20.9285 30.598 21.8565 29.5565 22.761 28.417C21.8605 28.4705 20.9815 28.5835 20.0415 28.5835C19.101 28.5835 18.138 28.4705 17.237 28.417C18.142 29.557 19.071 30.5985 20 31.52ZM12.058 2.036C11.1585 2.036 10.5155 2.205 9.7965 2.6125C8.597 3.293 7.769 4.458 7.336 6.0755C6.856 7.869 6.8975 10.2265 7.454 12.916C2.7095 14.5945 0 17.1625 0 20C0 22.838 2.71 25.4055 7.4545 27.084C6.898 29.7735 6.8565 32.131 7.337 33.9245C7.7695 35.541 8.597 36.706 9.7975 37.3875C10.5175 37.7955 11.3825 37.969 12.2815 37.969C14.525 37.969 17.158 36.7015 20.0005 34.236C22.8425 36.699 25.52 37.998 27.763 37.9985C28.6625 37.9985 29.4835 37.792 30.2035 37.384C31.402 36.7045 32.229 35.541 32.6615 33.9255C33.142 32.1315 33.1005 29.774 32.544 27.085C37.2895 25.406 40 22.838 40 20C40 17.162 37.29 14.594 32.5445 12.9155C33.1015 10.2255 33.1425 7.868 32.662 6.0745C32.229 4.459 31.4015 3.2955 30.2025 2.616C29.483 2.2085 28.662 2.0015 27.763 2.0015C25.5205 2.0015 22.8435 3.301 20.001 5.765C17.158 3.299 14.468 2.0345 12.224 2.0345L12.058 2.036ZM9.86 12.1885C9.629 11.0265 9.474 9.9375 9.4655 8.9825C9.458 8.1225 9.576 7.374 9.7505 6.722C10.004 5.776 10.4345 5.125 11.03 4.787C11.368 4.595 11.78 4.465 12.2415 4.465C13.832 4.465 15.925 5.554 18.183 7.482C17.0725 8.6185 15.987 9.8915 14.95 11.2745C13.1575 11.4745 11.4485 11.781 9.86 12.1885ZM21.819 7.483C24.0765 5.5565 26.1745 4.5015 27.763 4.5015C28.225 4.5015 28.6315 4.599 28.97 4.791C29.5645 5.128 29.9945 5.7775 30.2475 6.7215C30.6845 8.1305 30.628 10.0035 30.1385 12.188C28.55 11.781 26.8415 11.474 25.0495 11.275C24.013 9.89249 22.9285 8.61949 21.819 7.483ZM18.3365 11.03C18.8845 10.38 19.441 9.765 20.0005 9.191C20.56 9.765 21.116 10.38 21.6635 11.03C21.104 11.01 20.5475 11 20 11C19.4525 11 18.8965 11.01 18.3365 11.03ZM16.3125 13.65C17.515 13.5505 18.754 13.4795 20 13.4795C21.2455 13.4795 22.4845 13.5505 23.6865 13.65C24.4025 14.6595 25.0845 15.713 25.7145 16.7845C26.3255 17.8235 26.901 18.904 27.426 19.9995C26.9005 21.0955 26.325 22.1765 25.714 23.2155C25.0835 24.2875 24.402 25.3405 23.686 26.35C22.4845 26.4495 21.2455 26.583 20 26.583C18.7535 26.583 17.514 26.449 16.311 26.3495C15.5945 25.3405 14.9125 24.287 14.282 23.215C13.671 22.1765 13.096 21.096 12.571 20C13.096 18.904 13.6715 17.823 14.2825 16.784C14.9135 15.7125 15.596 14.659 16.3125 13.65ZM28.711 17.012C28.4365 16.503 28.155 16.003 27.8695 15.517C27.5845 15.0325 27.286 14.546 26.977 14.0625C27.864 14.2135 28.7195 14.394 29.534 14.6025C29.3005 15.3855 29.025 16.1915 28.711 17.012ZM10.464 14.6025C11.2785 14.394 12.134 14.2135 13.021 14.0625C12.7115 14.546 12.413 15.0325 12.128 15.5165C11.8425 16.0025 11.561 16.5025 11.2865 17.0115C10.9725 16.192 10.6975 15.386 10.464 14.6025ZM30.1825 19.9995C30.89 18.4185 31.476 16.8535 31.9275 15.3365C35.379 16.596 37.5 18.3605 37.5 20C37.5 21.6395 35.379 23.404 31.9275 24.6635C31.4755 23.146 30.89 21.5805 30.1825 19.9995ZM8.071 24.663C4.6205 23.4035 2.5 21.639 2.5 20C2.5 18.361 4.6205 16.5965 8.0705 15.337C8.522 16.8545 9.1075 18.4195 9.815 20.0005C9.108 21.581 8.5225 23.146 8.071 24.663ZM26.9765 25.938C27.2855 25.454 27.5845 24.9675 27.869 24.4835C28.155 23.9975 28.4365 23.497 28.711 22.988C29.025 23.8085 29.3 24.615 29.534 25.3985C28.719 25.606 27.8635 25.787 26.9765 25.938ZM10.4645 25.3975C10.698 24.6145 10.973 23.809 11.2865 22.9895C11.5605 23.498 11.842 23.998 12.1275 24.4835C12.412 24.9675 12.7105 25.4535 13.02 25.9375C12.1335 25.786 11.2785 25.6055 10.4645 25.3975ZM12.237 35.5015C11.775 35.5015 11.369 35.404 11.0305 35.212C10.4355 34.874 10.005 34.2235 9.752 33.2775C9.3365 31.855 9.3835 29.9815 9.861 27.811C11.449 28.218 13.157 28.525 14.9485 28.724C15.986 30.107 17.0715 31.3805 18.1825 32.518C15.925 34.4465 13.8265 35.502 12.237 35.5015ZM25.049 28.725C26.841 28.5255 28.5495 28.219 30.138 27.812C30.6905 30.182 30.734 32.071 30.2465 33.278C29.994 34.2225 29.5645 34.872 28.9705 35.2085C28.6315 35.4005 28.2255 35.498 27.764 35.498C26.174 35.498 24.075 34.443 21.818 32.5175C22.928 31.381 24.0125 30.108 25.049 28.725ZM20 30.81C19.44 30.236 18.883 29.6205 18.335 28.97C18.895 28.99 19.452 29 20 29C20.5475 29 21.104 28.99 21.6635 28.97C21.116 29.6205 20.5595 30.236 20 30.81Z" fill="#4E7AB5"/>
</svg>
