<svg width="40" height="40" viewBox="0 0 40 40" fill="none" xmlns="http://www.w3.org/2000/svg">
<path d="M35 5H5V35H35V5Z" fill="#1976D2"/>
<path d="M22.9082 18.3333H11.8557V21.0533H15.8199V33.3333H18.9607V21.0533H22.9082V18.3333Z" fill="white"/>
<path d="M32.6616 21.7367C32.6616 21.7367 31.1724 20.7433 29.4891 20.7433C27.8057 20.7433 27.1999 21.5433 27.1999 22.3983C27.1999 24.605 33.3507 24.3842 33.3507 28.825C33.3507 35.6658 23.9724 32.6317 23.9724 32.6317V29.35C23.9724 29.35 25.7657 30.7017 27.9166 30.7017C30.0674 30.7017 29.9857 29.295 29.9857 29.1017C29.9857 27.0608 23.8899 27.0608 23.8899 22.5367C23.8899 16.3858 32.7716 18.8125 32.7716 18.8125L32.6616 21.7367Z" fill="white"/>
</svg>
