<svg width="40" height="40" viewBox="0 0 40 40" fill="none" xmlns="http://www.w3.org/2000/svg">
<path d="M36.6665 9.25834V30.7417C36.6665 31.8 36.0082 32.7417 35.0165 33.0917L27.6665 36.5417L28.3332 27.5V12.5L27.6665 3.45834L35.0165 6.90834C36.0082 7.25834 36.6665 8.20001 36.6665 9.25834Z" fill="#29B6F6"/>
<path d="M7.50002 28.2467L28.3333 12.5V4.46083C28.3333 3.4625 27.0983 2.99583 26.4375 3.74416L3.88168 24.3658C3.13168 25.0575 3.17418 26.255 3.97085 26.8925C3.97085 26.8925 5.07418 27.9192 5.47335 28.2042C6.08668 28.6417 6.89252 28.6917 7.50002 28.2467Z" fill="#0277BD"/>
<path d="M7.50002 11.7533L28.3333 27.5V35.5392C28.3333 36.5375 27.0983 37.0042 26.4375 36.2558L3.88168 15.6342C3.13168 14.9425 3.17418 13.745 3.97085 13.1075C3.97085 13.1075 5.07418 12.0808 5.47335 11.7958C6.08668 11.3583 6.89252 11.3083 7.50002 11.7533Z" fill="#0288D1"/>
</svg>
