<svg width="40" height="40" viewBox="0 0 40 40" fill="none" xmlns="http://www.w3.org/2000/svg">
<path d="M27.5635 12.4365C26.9072 12.4053 26.3745 12.5 26.3745 12.5L31.3745 20L26.3745 27.3755C26.3745 27.3755 28.624 27.7505 29.624 26.7505C30.249 26.1255 30.624 25.5 32.749 22.5C33.124 21.875 33.501 22.5 33.501 22.5C35.376 25 35.8755 26.0005 36.7505 26.7505C37.8755 27.6255 40 27.3755 40 27.3755L35 20L39.8755 12.5C39.8755 12.5 37.7505 12.125 36.7505 13.125C36.0005 13.875 35.251 14.875 33.501 17.5C33.501 17.5 33.124 18.125 32.749 17.5C30.999 15 30.2495 13.875 29.4995 13.125C28.9995 12.625 28.2197 12.4678 27.5635 12.4365ZM0.524902 12.4878C0.348145 12.4795 0.171875 12.4844 0 12.5L3.99902 27.5C3.99902 27.5 5.24902 27.501 5.87402 27.251C6.74902 26.876 7.12451 26.4995 7.62451 24.4995C8.12451 22.7495 9.37451 17.3745 9.49951 16.9995C9.74951 16.1245 10.126 16.1245 10.376 16.9995C10.501 17.3745 11.751 22.6245 12.251 24.4995C12.751 26.4995 13.124 26.876 13.999 27.251C14.749 27.626 16.001 27.5 16.001 27.5L20 12.5C18.625 12.375 17 13.124 16.875 14.624L14.751 22.6245L13.0005 16.1255C12.6255 14.2505 11.7495 13.2495 10.1245 13.2495C8.49951 13.2495 7.75098 14.1255 7.25098 16.1255L5.50049 22.6245L3.37402 14.624C3.0459 13.2022 1.76221 12.5459 0.524902 12.4878ZM24.4995 12.5C24.4995 12.5 23.501 12.499 22.876 12.749C22.126 13.124 21.875 13.8745 21.875 15.7495C21.875 15.7495 22.251 15.3745 22.876 15.1245C24.626 14.4995 24.4995 13.25 24.4995 12.5ZM24.375 15V15.0952C24.4054 15.0408 24.4127 15 24.375 15ZM24.375 15.0952C24.3045 15.2214 24.0622 15.4503 23.6255 15.625C23.2505 15.875 22.875 16.0005 22.5 16.1255C21.625 16.5005 21.7505 16.9995 21.7505 18.2495V27.5C21.7505 27.5 22.749 27.626 23.374 27.251C24.249 26.876 24.375 26.3745 24.375 24.4995V15.0952Z" fill="#EEEEEE"/>
</svg>
